<svg width="30" height="22" viewBox="0 0 30 22" fill="none" xmlns="http://www.w3.org/2000/svg">
<path d="M5.90136 5.41898H26.6513C28.0837 5.41898 29.245 6.58929 29.245 8.03289V18.4884C29.245 19.9321 28.0837 21.1024 26.6513 21.1024H5.90136C4.46889 21.1024 3.30762 19.9321 3.30762 18.4884V8.03289C3.30762 6.58923 4.46889 5.41898 5.90136 5.41898Z" fill="#EBD5FF"/>
<path d="M25.3544 6.72571C26.7868 6.72571 27.948 7.89602 27.948 9.33963V11.9535C27.948 13.3971 26.7868 14.5674 25.3544 14.5674C23.922 14.5674 22.7607 13.3971 22.7607 11.9535V9.33963C22.7607 7.89596 23.922 6.72571 25.3544 6.72571Z" fill="#272A2F"/>
<path d="M13.6826 14.5674H18.8701C19.5863 14.5674 20.1669 15.1525 20.1669 15.8743V15.8744C20.1669 16.5962 19.5863 17.1813 18.8701 17.1813H13.6826C12.9664 17.1813 12.3857 16.5962 12.3857 15.8744V15.8743C12.3857 15.1525 12.9664 14.5674 13.6826 14.5674Z" fill="#272A2F"/>
<path fill-rule="evenodd" clip-rule="evenodd" d="M7.19823 6.72571H25.3543C25.3543 8.16931 26.5155 9.33957 27.948 9.33963V17.1813H27.948C26.5155 17.1814 25.3543 18.3516 25.3543 19.7952H7.19823V19.7952C7.19817 18.3516 6.03695 17.1813 4.60449 17.1813V9.33963C6.03695 9.33957 7.19823 8.16931 7.19823 6.72571ZM12.3857 13.2604C12.3857 15.4258 14.1276 17.1813 16.2763 17.1813C18.4251 17.1813 20.1669 15.4258 20.1669 13.2604C20.1669 11.095 18.425 9.33958 16.2763 9.33958C14.1276 9.33958 12.3857 11.095 12.3857 13.2604Z" fill="#19E77C"/>
<path d="M25.3543 6.72571H7.19823C7.19823 8.16931 6.03695 9.33957 4.60449 9.33963V14.5674C4.60449 16.011 5.76577 17.1813 7.19823 17.1813H16.2762C14.1275 17.1813 12.3856 15.4259 12.3856 13.2605C12.3856 11.0951 14.1275 9.33963 16.2762 9.33963C18.4249 9.33963 20.1668 11.0951 20.1668 13.2605C20.1668 15.4259 18.4249 17.1813 16.2762 17.1813H25.3542C26.7867 17.1813 27.9479 16.011 27.948 14.5674V9.33963C26.5155 9.33957 25.3543 8.16931 25.3543 6.72571Z" fill="#00C35E"/>
<path d="M3.30761 0.190765H24.0575C25.49 0.190765 26.6513 1.36108 26.6513 2.80468V13.2602C26.6513 14.7038 25.49 15.8742 24.0575 15.8742H3.30761C1.87514 15.8742 0.713867 14.7038 0.713867 13.2602V2.80468C0.713867 1.36102 1.87514 0.190765 3.30761 0.190765Z" fill="#F6EDFF"/>
<path fill-rule="evenodd" clip-rule="evenodd" d="M4.60448 1.49786H22.7605C22.7605 2.94147 23.9218 4.11178 25.3543 4.11178V11.9535H25.3542C23.9217 11.9535 22.7605 13.1238 22.7605 14.5674H4.60448V14.5673C4.60442 13.1237 3.4432 11.9535 2.01074 11.9535V4.11178C3.4432 4.11172 4.60448 2.94147 4.60448 1.49786ZM9.79199 8.03262C9.79199 10.198 11.5339 11.9535 13.6826 11.9535C15.8313 11.9535 17.5731 10.198 17.5731 8.03262C17.5731 5.86721 15.8313 4.11177 13.6826 4.11177C11.5339 4.11177 9.79199 5.86721 9.79199 8.03262Z" fill="#19E77C"/>
<path opacity="0.24" d="M10.5971 11.4444H22.1247C22.7614 11.4444 23.2775 11.9562 23.2775 12.5876C23.2775 13.2189 22.7614 13.7307 22.1247 13.7307H10.5971C9.96049 13.7307 9.44434 13.2189 9.44434 12.5876C9.44434 11.9562 9.96049 11.4444 10.5971 11.4444Z" fill="#DEDEDF"/>
</svg>
