<svg width="187" height="214" viewBox="0 0 187 214" fill="none" xmlns="http://www.w3.org/2000/svg">
<path opacity="0.12" fill-rule="evenodd" clip-rule="evenodd" d="M117.474 139.976C79.0764 139.976 47.9487 108.757 47.9487 70.2461C47.9487 31.7351 79.0764 0.515747 117.474 0.515747C155.872 0.515747 187 31.7351 187 70.2461C187 108.757 155.872 139.976 117.474 139.976Z" fill="#1D2025"/>
<path opacity="0.488049" fill-rule="evenodd" clip-rule="evenodd" d="M7.71436 209.092C7.71436 206.761 43.0843 204.869 86.7144 204.869C130.346 204.869 165.714 206.761 165.714 209.092C165.714 211.423 130.346 213.314 86.7144 213.314C43.0843 213.314 7.71436 211.423 7.71436 209.092Z" fill="#CEE5ED"/>
<path fill-rule="evenodd" clip-rule="evenodd" d="M98.5863 193.319L97.9558 197.299L100.929 201.223L108.653 197.561L109.534 193.925L100.002 192.345L98.5863 193.319Z" fill="#F2BF75"/>
<path fill-rule="evenodd" clip-rule="evenodd" d="M104.604 206.238L105.41 205.264C105.557 205.086 105.83 205.086 105.978 205.264L106.76 206.211C107.077 206.593 107.548 206.813 108.044 206.813L125.876 206.753C126.22 206.409 126.319 205.812 125.926 205.402C123.348 202.721 109.348 197.955 108.653 197.561C107.958 197.165 103.611 200.458 97.9559 197.298C97.9559 197.298 96.9717 201.762 96.7991 204.66C96.7284 205.844 97.6454 206.848 98.8285 206.843L103.354 206.828C103.837 206.827 104.295 206.611 104.604 206.238Z" fill="#1E394C"/>
<path fill-rule="evenodd" clip-rule="evenodd" d="M70.0116 193.48L69.3823 197.461L72.3551 201.384L80.0796 197.722L80.9595 194.086L71.4285 192.506L70.0116 193.48Z" fill="#F2BF75"/>
<path fill-rule="evenodd" clip-rule="evenodd" d="M76.0293 206.398L76.8361 205.425C76.9835 205.247 77.2556 205.247 77.4031 205.426L78.187 206.373C78.5023 206.755 78.9734 206.976 79.4697 206.974L97.3018 206.914C97.647 206.57 97.7441 205.973 97.3509 205.563C94.7737 202.882 80.7739 198.116 80.0786 197.722C79.3834 197.326 75.038 200.619 69.3813 197.46C69.3813 197.46 68.3971 201.922 68.2245 204.821C68.1538 206.005 69.0708 207.009 70.2539 207.006L74.7791 206.99C75.2622 206.988 75.7201 206.772 76.0293 206.398Z" fill="#1E394C"/>
<path fill-rule="evenodd" clip-rule="evenodd" d="M111.133 64.6371L116.56 85.4179L131.335 75.5282L138.019 80.8506L118.729 98.96L104.856 86.0515L111.133 64.6371Z" fill="#CEE5ED"/>
<path fill-rule="evenodd" clip-rule="evenodd" d="M131.357 75.5337L135.655 67.0242C136.125 66.1165 137.259 65.7907 138.137 66.3113C140.521 67.7288 141.752 70.512 141.171 73.229C140.587 75.9473 139.603 79.1609 138.019 80.8513L131.357 75.5337Z" fill="#F2BF75"/>
<path fill-rule="evenodd" clip-rule="evenodd" d="M136.671 59.1083L141.385 58.7236C142.069 58.6671 142.506 59.1083 142.356 59.7035L139.013 72.9883C138.863 73.5834 138.181 74.116 137.497 74.1713L132.782 74.5572C131.684 74.6462 131.051 76.5986 131.811 73.5762L135.154 60.2914C135.304 59.6974 135.986 59.1649 136.671 59.1083Z" fill="#1E394C"/>
<path fill-rule="evenodd" clip-rule="evenodd" d="M131.338 75.5683L130.35 72.4124C129.933 71.6105 130.176 70.6223 130.917 70.1065L132.554 68.9656C133.043 68.6253 133.71 68.7083 134.101 69.1579C134.543 69.6653 134.468 70.4419 133.937 70.8555L133.183 71.441L132.413 72.0241L134.239 74.7881L131.338 75.5683Z" fill="#F2BF75"/>
<path fill-rule="evenodd" clip-rule="evenodd" d="M70.0586 194.406C70.0586 189.763 74.4361 112.477 74.4361 112.477C74.4361 112.477 85.2965 101.874 91.2061 102.997C97.1158 101.874 110.552 109.735 110.552 109.735C110.552 109.735 109.272 189.763 109.272 194.406H98.473C98.473 194.406 96.3831 159.559 91.3941 132.947C91.1711 131.758 91.3574 131.64 91.1345 132.83C86.1442 159.441 80.8585 194.406 80.8585 194.406H70.0586Z" fill="#1E394C"/>
<path fill-rule="evenodd" clip-rule="evenodd" d="M90.9609 52.0822C90.9609 52.0822 75.8511 55.7899 73.7605 58.2088C71.6712 60.6265 63.8148 75.7015 63.9562 80.7798C64.1204 86.7249 74.282 99.4158 74.083 98.674V116.582C74.083 116.582 97.229 123.837 111.214 114.969C111.214 114.969 112.817 68.9773 110.893 63.851C110.301 62.276 102.695 55.6288 100.445 54.8233C98.194 54.0166 90.9609 52.0822 90.9609 52.0822Z" fill="#CEE5ED"/>
<path fill-rule="evenodd" clip-rule="evenodd" d="M63.9568 80.7793C64.1018 86.0801 72.2027 96.75 73.809 98.4668C73.8138 98.4716 73.8138 98.4716 73.8198 98.4764C73.9924 98.6063 74.0835 98.6748 74.0835 98.6748L79.1865 103.27L85.3347 97.707C85.3347 97.707 74.002 89.6062 75.5699 79.2068C76.6728 71.8899 84.2499 58.7734 84.2499 58.7734C86.8535 57.2983 89.4044 54.6184 91.3774 52.1947C91.1113 52.1226 90.9627 52.0841 90.9627 52.0841C90.9627 52.0841 75.8492 55.7882 73.7611 58.2072C71.6729 60.6249 63.8177 75.701 63.9568 80.7793Z" fill="#CEE5ED"/>
<path fill-rule="evenodd" clip-rule="evenodd" d="M115.925 76.8826C118.939 76.8826 121.382 79.3327 121.382 82.3552V111.125C121.382 114.149 118.939 116.599 115.925 116.599H66.0771C63.0623 116.599 60.6193 114.149 60.6193 111.125V82.3552C60.6193 79.3327 63.0623 76.8826 66.0771 76.8826H115.925Z" fill="#3CB8C9"/>
<path opacity="0.24" fill-rule="evenodd" clip-rule="evenodd" d="M72.5259 76.8826C69.5123 76.8826 67.0693 79.3327 67.0693 82.3552V111.125C67.0693 114.149 69.5123 116.599 72.5259 116.599H66.0768C63.062 116.599 60.619 114.149 60.619 111.125V82.3552C60.619 79.3327 63.062 76.8826 66.0768 76.8826H72.5259Z" fill="#1D2025"/>
<path fill-rule="evenodd" clip-rule="evenodd" d="M121.382 91.3011H60.6205V83.4708H121.382V91.3011Z" fill="#1E394C"/>
<path fill-rule="evenodd" clip-rule="evenodd" d="M115.612 102.543H103.646V100.884H115.612V102.543Z" fill="#1E394C"/>
<path fill-rule="evenodd" clip-rule="evenodd" d="M115.61 106.246H109.825V104.587H115.61V106.246Z" fill="#1E394C"/>
<path fill-rule="evenodd" clip-rule="evenodd" d="M90.1572 43.6589V54.4202C90.1572 54.4202 93.6538 65.1816 101.731 56.7177L102.454 48.1325L90.1572 43.6589Z" fill="#EA9249"/>
<path fill-rule="evenodd" clip-rule="evenodd" d="M111.134 35.2349C111.134 35.2349 124.797 32.3326 116.358 20.6444C116.358 20.6444 114.912 26.8516 107.518 21.5316C103.749 18.8206 98.1595 18.1413 91.925 21.5316C85.2541 25.1588 82.9238 36.2832 88.6309 42.0865L99.8017 39.8298L111.134 35.2349Z" fill="#1E394C"/>
<path fill-rule="evenodd" clip-rule="evenodd" d="M111.134 35.2348C111.134 35.2348 112.742 53.8552 100.445 52.647C90.8398 51.702 91.2018 44.4248 91.2018 44.4248C91.2018 44.4248 88.0671 43.7792 87.9065 40.9587C87.7459 38.1371 88.6305 35.7987 91.4427 37.6538C91.4427 37.6538 96.4258 34.4293 96.7483 32.1715C96.7483 32.1715 102.615 35.3959 111.134 35.2348Z" fill="#F2BF75"/>
<path fill-rule="evenodd" clip-rule="evenodd" d="M94.9252 115.251C95.545 116.018 95.3292 117.242 94.4206 117.98L92.336 119.674C91.4286 120.411 90.1903 120.369 89.5705 119.602L83.0243 111.429L89.2852 106.6L96.0928 111.422C96.5687 111.765 96.5663 112.491 96.0724 112.806C95.7823 112.991 95.4071 113.112 94.9444 113.04C93.6594 112.838 93.1379 112.115 93.1379 112.115L94.9252 115.251Z" fill="#F6BA8E"/>
<path fill-rule="evenodd" clip-rule="evenodd" d="M90.4688 106.678L83.159 112.579C83.159 112.579 63.3022 90.5464 63.2207 82.1247C63.1751 77.3878 68.911 65.9821 72.5048 59.829H85.373C85.373 59.829 76.192 73.6885 73.4218 80.3369C72.8955 81.6005 73.0514 83.042 73.8246 84.1709C77.1762 89.0724 87.0788 103.409 90.4688 106.678Z" fill="#CEE5ED"/>
<path fill-rule="evenodd" clip-rule="evenodd" d="M72.505 59.8287C72.505 59.8287 65.1712 78.0668 65.206 81.7253C65.2767 88.9772 81.1429 106.223 85.2354 110.903L83.1592 112.579C83.1592 112.579 63.3024 90.5462 63.2209 82.1244C63.1753 77.3876 68.9112 65.9818 72.505 59.8287Z" fill="#B4CCD3"/>
<path fill-rule="evenodd" clip-rule="evenodd" d="M75.3224 76.7341L75.7275 76.8784H108.898L109.352 76.7341L78.1693 75.9322C78.1693 75.9322 82.2186 64.6587 81.5833 64.9773C80.9372 65.3067 75.3224 76.7341 75.3224 76.7341Z" fill="#B4CCD3"/>
<path fill-rule="evenodd" clip-rule="evenodd" d="M105.73 49.9313C107.041 48.5415 107.228 46.0613 107.228 46.0613C107.228 46.0613 108.689 46.0613 108.876 45.8737C109.063 45.6862 108.427 40.5393 108.539 39.6365C108.618 39.0017 108.952 36.519 109.139 35.1665C109.977 35.217 110.233 35.2519 111.135 35.235C111.135 35.235 112.742 53.8554 100.444 52.6472C103.439 52.6941 104.418 51.3211 105.73 49.9313Z" fill="#EA9249"/>
<path fill-rule="evenodd" clip-rule="evenodd" d="M8.57693 155.167C4.79857 151.151 3.86237 145.879 6.48996 143.393C9.11516 140.907 14.3092 142.146 18.0888 146.163C21.8683 150.18 24.5594 157.318 21.933 159.804C19.3067 162.29 12.3565 159.183 8.57693 155.167Z" fill="#198B20"/>
<path fill-rule="evenodd" clip-rule="evenodd" d="M6.49001 143.393C7.30514 142.621 8.3672 142.21 9.55873 142.128C9.43286 142.223 9.307 142.316 9.19072 142.425C6.56433 144.911 7.49933 150.183 11.2789 154.199C14.1222 157.22 18.7589 159.726 21.999 159.723C21.9762 159.748 21.9583 159.78 21.9331 159.804C19.3067 162.29 12.3577 159.183 8.57698 155.167C4.79862 151.151 3.86362 145.879 6.49001 143.393Z" fill="black" fill-opacity="0.24"/>
<path fill-rule="evenodd" clip-rule="evenodd" d="M27.7929 139.705C27.287 134.287 29.5789 129.642 32.9126 129.329C36.245 129.016 39.3557 133.155 39.8604 138.572C40.3662 143.99 38.3092 151.154 34.9768 151.466C31.6443 151.779 28.2975 145.122 27.7929 139.705Z" fill="#41DC65"/>
<path fill-rule="evenodd" clip-rule="evenodd" d="M32.9119 129.329C33.534 129.271 34.1477 129.367 34.7375 129.599C32.0044 130.697 30.2423 134.892 30.6918 139.704C31.1102 144.191 33.4788 149.515 36.1724 151.039C35.7948 151.278 35.3956 151.426 34.9772 151.466C31.6436 151.779 28.2968 145.123 27.7921 139.704C27.2875 134.287 29.5794 129.642 32.9119 129.329Z" fill="black" fill-opacity="0.24"/>
<path fill-rule="evenodd" clip-rule="evenodd" d="M44.0153 135.543C46.3277 130.98 50.4764 128.44 53.2814 129.87C56.0888 131.3 56.4916 136.158 54.1793 140.722C51.8693 145.284 46.6453 149.944 43.8403 148.515C41.0329 147.084 41.7042 140.105 44.0153 135.543Z" fill="#198B20"/>
<path fill-rule="evenodd" clip-rule="evenodd" d="M44.0152 135.543C46.3276 130.98 50.4763 128.44 53.2813 129.87C54.3566 130.418 55.0758 131.469 55.4282 132.812C55.1717 132.567 54.8876 132.354 54.5687 132.192C51.7613 130.761 47.6126 133.302 45.3015 137.864C43.6796 141.068 42.8705 145.455 43.4998 148.284C41.1023 146.468 41.8048 139.907 44.0152 135.543Z" fill="black" fill-opacity="0.24"/>
<path fill-rule="evenodd" clip-rule="evenodd" d="M48.4801 154.612C52.9345 152.611 57.4813 153.086 58.6368 155.67C59.7912 158.256 57.1157 161.975 52.66 163.976C48.2056 165.976 41.5887 166.433 40.4343 163.847C39.2787 161.262 44.0245 156.614 48.4801 154.612Z" fill="#41DC65"/>
<path fill-rule="evenodd" clip-rule="evenodd" d="M48.4799 154.612C52.9344 152.611 57.4811 153.084 58.6367 155.67C58.9052 156.274 58.9579 156.941 58.8369 157.632C57.6058 155.14 53.1298 154.703 48.7365 156.677C45.1523 158.287 41.3835 161.61 40.6499 164.194C40.5684 164.084 40.4893 163.972 40.4341 163.847C39.2786 161.261 44.0243 156.614 48.4799 154.612Z" fill="black" fill-opacity="0.24"/>
<path fill-rule="evenodd" clip-rule="evenodd" d="M7.35622 170.381C2.90897 168.793 0.145927 165.134 1.18521 162.209C2.2245 159.282 6.67175 158.199 11.119 159.787C15.5674 161.377 20.3971 165.774 19.3578 168.699C18.3197 171.625 11.8035 171.97 7.35622 170.381Z" fill="#198B20"/>
<path fill-rule="evenodd" clip-rule="evenodd" d="M1.18467 162.208C1.63059 160.954 2.70584 160.04 4.13591 159.528C3.61447 159.985 3.2141 160.533 2.98634 161.177C1.94705 164.102 4.7089 167.761 9.15614 169.349C12.1649 170.424 16.1147 170.611 18.6812 169.715C16.6433 171.679 11.2215 171.762 7.35567 170.381C2.90842 168.793 0.146576 165.133 1.18467 162.208Z" fill="black" fill-opacity="0.24"/>
<path fill-rule="evenodd" clip-rule="evenodd" d="M30.4915 186.459C29.4618 173.76 23.9237 162.225 14.6852 153.478C14.3244 153.135 14.871 152.588 15.2318 152.931C24.6201 161.822 30.217 173.553 31.2646 186.459C31.3042 186.956 30.5322 186.952 30.4915 186.459Z" fill="#1E394C"/>
<path fill-rule="evenodd" clip-rule="evenodd" d="M33.2995 184.652C32.983 168.997 37.8846 153.978 47.3928 141.553C47.6901 141.163 48.3602 141.548 48.0593 141.944C38.6302 154.266 33.7574 169.122 34.0715 184.652C34.081 185.15 33.3103 185.15 33.2995 184.652Z" fill="#1E394C"/>
<path fill-rule="evenodd" clip-rule="evenodd" d="M36.5608 161.922C34.457 155.199 33.9188 148.059 33.6611 141.052C33.6431 140.554 34.4151 140.554 34.4331 141.052C34.6884 147.996 35.2206 155.054 37.3052 161.716C37.4538 162.192 36.7094 162.395 36.5608 161.922Z" fill="#1E394C"/>
<path fill-rule="evenodd" clip-rule="evenodd" d="M48.5527 160.626C44.8391 162.967 40.5069 164.753 36.4109 166.312C35.9458 166.487 35.7444 165.739 36.2059 165.564C40.2324 164.033 44.5094 162.261 48.1631 159.958C48.5851 159.692 48.9735 160.362 48.5527 160.626Z" fill="#1E394C"/>
<path fill-rule="evenodd" clip-rule="evenodd" d="M15.6779 166.654C19.3952 168.21 23.1951 169.484 27.0993 170.481C27.58 170.603 27.3762 171.35 26.8931 171.227C22.9913 170.229 19.1902 168.956 15.4718 167.399C15.021 167.211 15.2188 166.462 15.6779 166.654Z" fill="#1E394C"/>
<path fill-rule="evenodd" clip-rule="evenodd" d="M46.2351 182.862L43.8904 204.152C43.5979 206.814 41.3551 208.829 38.6856 208.829H25.1533C22.4837 208.829 20.2409 206.814 19.9472 204.152L17.6037 182.862C17.4767 181.703 18.3805 180.691 19.5421 180.691H44.2968C45.4596 180.691 46.3622 181.703 46.2351 182.862Z" fill="#CEE5ED"/>
<path fill-rule="evenodd" clip-rule="evenodd" d="M19.5423 180.691H28.1251C26.9624 180.691 26.0585 181.703 26.1856 182.862L28.5303 204.153C28.824 206.815 31.0656 208.828 33.7363 208.828H25.1535C22.4828 208.828 20.2412 206.815 19.9475 204.153L17.604 182.862C17.4757 181.703 18.3796 180.691 19.5423 180.691Z" fill="#AAC6CE"/>
</svg>
