<svg width="50" height="52" viewBox="0 0 50 52" fill="none" xmlns="http://www.w3.org/2000/svg">
<path fill-rule="evenodd" clip-rule="evenodd" d="M25 51.6744C38.8071 51.6744 50 40.4815 50 26.6744V25.5116C50 11.7045 38.8071 0.511597 25 0.511597C11.1929 0.511597 0 11.7045 0 25.5116V26.6744C0 40.4815 11.1929 51.6744 25 51.6744Z" fill="#F7F7F7"/>
<path d="M15.9014 20.4189H36.6513C38.0837 20.4189 39.245 21.5892 39.245 23.0328V33.4883C39.245 34.932 38.0837 36.1023 36.6513 36.1023H15.9014C14.4689 36.1023 13.3076 34.932 13.3076 33.4883V23.0328C13.3076 21.5891 14.4689 20.4189 15.9014 20.4189Z" fill="#EBD5FF"/>
<path d="M35.3544 21.7257C36.7868 21.7257 37.948 22.896 37.948 24.3396V26.9535C37.948 28.3971 36.7868 29.5674 35.3544 29.5674C33.922 29.5674 32.7607 28.3971 32.7607 26.9535V24.3396C32.7607 22.896 33.922 21.7257 35.3544 21.7257Z" fill="#272A2F"/>
<path d="M23.6826 29.5674H28.8701C29.5863 29.5674 30.1669 30.1525 30.1669 30.8743V30.8744C30.1669 31.5962 29.5863 32.1813 28.8701 32.1813H23.6826C22.9664 32.1813 22.3857 31.5962 22.3857 30.8744V30.8743C22.3857 30.1525 22.9664 29.5674 23.6826 29.5674Z" fill="#272A2F"/>
<path fill-rule="evenodd" clip-rule="evenodd" d="M17.1982 21.7257H35.3543C35.3543 23.1693 36.5155 24.3396 37.948 24.3396V32.1813C36.5155 32.1814 35.3543 33.3516 35.3543 34.7952H17.1982C17.1982 33.3516 16.037 32.1813 14.6045 32.1813V24.3396C16.037 24.3396 17.1982 23.1693 17.1982 21.7257ZM22.3857 28.2604C22.3857 30.4258 24.1276 32.1813 26.2763 32.1813C28.4251 32.1813 30.1669 30.4258 30.1669 28.2604C30.1669 26.095 28.425 24.3396 26.2763 24.3396C24.1276 24.3396 22.3857 26.095 22.3857 28.2604Z" fill="#19E77C"/>
<path d="M35.3543 21.7257H17.1982C17.1982 23.1693 16.037 24.3396 14.6045 24.3396V29.5674C14.6045 31.011 15.7658 32.1813 17.1982 32.1813H26.2762C24.1275 32.1813 22.3856 30.4259 22.3856 28.2605C22.3856 26.0951 24.1275 24.3396 26.2762 24.3396C28.4249 24.3396 30.1668 26.0951 30.1668 28.2605C30.1668 30.4259 28.4249 32.1813 26.2762 32.1813H35.3542C36.7867 32.1813 37.9479 31.011 37.948 29.5674V24.3396C36.5155 24.3396 35.3543 23.1693 35.3543 21.7257Z" fill="#00C35E"/>
<path d="M13.3076 15.1908H34.0575C35.49 15.1908 36.6513 16.3611 36.6513 17.8047V28.2602C36.6513 29.7038 35.49 30.8742 34.0575 30.8742H13.3076C11.8751 30.8742 10.7139 29.7038 10.7139 28.2602V17.8047C10.7139 16.361 11.8751 15.1908 13.3076 15.1908Z" fill="#F6EDFF"/>
<path fill-rule="evenodd" clip-rule="evenodd" d="M14.6045 16.4979H32.7605C32.7605 17.9415 33.9218 19.1118 35.3543 19.1118V26.9535H35.3542C33.9217 26.9535 32.7605 28.1238 32.7605 29.5674H14.6045V29.5673C14.6044 28.1237 13.4432 26.9535 12.0107 26.9535V19.1118C13.4432 19.1117 14.6045 17.9415 14.6045 16.4979ZM19.792 23.0326C19.792 25.198 21.5339 26.9535 23.6826 26.9535C25.8313 26.9535 27.5731 25.198 27.5731 23.0326C27.5731 20.8672 25.8313 19.1118 23.6826 19.1118C21.5339 19.1118 19.792 20.8672 19.792 23.0326Z" fill="#19E77C"/>
<path opacity="0.24" d="M20.5971 26.4445H32.1247C32.7614 26.4445 33.2775 26.9563 33.2775 27.5877C33.2775 28.219 32.7614 28.7308 32.1247 28.7308H20.5971C19.9605 28.7308 19.4443 28.219 19.4443 27.5877C19.4443 26.9563 19.9605 26.4445 20.5971 26.4445Z" fill="#DEDEDF"/>
</svg>
