<svg width="50" height="52" viewBox="0 0 50 52" fill="none" xmlns="http://www.w3.org/2000/svg">
<path fill-rule="evenodd" clip-rule="evenodd" d="M25 51.6744C38.8071 51.6744 50 40.4815 50 26.6744V25.5116C50 11.7045 38.8071 0.511597 25 0.511597C11.1929 0.511597 0 11.7045 0 25.5116V26.6744C0 40.4815 11.1929 51.6744 25 51.6744Z" fill="#F7F7F7"/>
<path d="M14.9014 21.5424H35.2152V36.6645H14.9014V21.5424Z" fill="#F5F5F5"/>
<path d="M33.374 22.4246H36.8223V35.6146H33.374V22.4246Z" fill="#F0F0F0"/>
<path d="M16.625 35.3796H13.1768V22.8862H16.625V35.3796Z" fill="#F0F0F0"/>
<path d="M32.3887 21.2903H37.8073V22.5505C37.8073 23.1072 37.3663 23.5585 36.8222 23.5585H33.374C32.8297 23.5585 32.3887 23.1072 32.3887 22.5505V21.2903Z" fill="#D4D7D9"/>
<path d="M33.374 34.6479H36.8222C37.3663 34.6479 37.8073 35.0995 37.8073 35.6562V36.9165H32.3887V35.6562C32.3887 35.0995 32.8297 34.6479 33.374 34.6479Z" fill="#D4D7D9"/>
<path d="M16.6247 23.5585H13.1765C12.6324 23.5585 12.1914 23.1072 12.1914 22.5505V21.2903H17.61V22.5505C17.61 23.1072 17.169 23.5585 16.6247 23.5585Z" fill="#D4D7D9"/>
<path d="M17.61 36.9165H12.1914V35.6562C12.1914 35.0995 12.6324 34.6479 13.1765 34.6479H16.6247C17.169 34.6479 17.61 35.0995 17.61 35.6562V36.9165Z" fill="#D4D7D9"/>
<path d="M11.6992 18.8708H38.7927V21.0382C38.7927 21.3166 38.5721 21.5423 38.3001 21.5423H12.1919C11.9198 21.5423 11.6992 21.3166 11.6992 21.0382V18.8708Z" fill="#005EEE"/>
<path d="M24.7646 34.3682C27.7029 34.3682 30.0848 31.9704 30.0848 29.0125C30.0848 26.0546 27.7029 23.6567 24.7646 23.6567C21.8263 23.6567 19.4443 26.0546 19.4443 29.0125C19.4443 31.9704 21.8263 34.3682 24.7646 34.3682Z" fill="#FFD300"/>
<path d="M24.765 34.3685C27.7034 34.3685 30.0853 31.9706 30.0853 29.0126V29.0016C30.0853 29.0007 30.0853 28.9999 30.0853 28.999V28.9945V28.9923V28.9878C30.0852 28.987 30.0852 28.9861 30.0852 28.9853V28.9833C30.0852 28.9824 30.0852 28.9816 30.0852 28.9808V28.9788C30.0852 28.9778 30.0852 28.977 30.0852 28.9761V28.9742C30.0852 28.9733 30.0852 28.9723 30.0852 28.9714V28.9697C30.0851 28.9686 30.0851 28.9676 30.0851 28.9665V28.9651C30.0851 28.9635 30.085 28.9621 30.085 28.9606V28.9599C30.085 28.9586 30.085 28.9574 30.085 28.9561V28.9544V28.9515V28.9498L30.0849 28.9469V28.9451V28.9424C30.0848 28.9418 30.0848 28.941 30.0848 28.9405V28.938V28.9359L30.0847 28.9333V28.9314C30.0847 28.9305 30.0847 28.9296 30.0847 28.9288C30.0847 28.9281 30.0847 28.9276 30.0846 28.9268C30.0846 28.926 30.0846 28.925 30.0846 28.9241L30.0845 28.9223V28.9194V28.9178L30.0844 28.9137V28.9133L30.0843 28.9087V28.9076L30.0842 28.9041V28.9025C30.0842 28.9016 30.0841 28.9006 30.0841 28.8997V28.8977V28.8951L30.084 28.8932C30.084 28.8923 30.084 28.8914 30.084 28.8906C30.0839 28.8898 30.0839 28.8892 30.0839 28.8885V28.8861C30.0839 28.8854 30.0838 28.8847 30.0838 28.884V28.8815V28.8795L30.0837 28.8767V28.8751C30.0836 28.8741 30.0836 28.873 30.0836 28.872L30.0835 28.8705L30.0834 28.8673V28.8659C30.0833 28.8647 30.0833 28.8632 30.0833 28.8619L30.0832 28.8607C30.0832 28.8594 30.0831 28.8582 30.0831 28.8569V28.8555C30.0831 28.8545 30.0831 28.8534 30.083 28.8524L30.0829 28.8507V28.8478L30.0828 28.8461L30.0827 28.8434V28.8415C30.0826 28.8406 30.0826 28.8397 30.0826 28.8388L30.0825 28.8369C30.0825 28.836 30.0825 28.8352 30.0824 28.8344L30.0823 28.8323V28.8299L30.0822 28.8278C30.0822 28.827 30.0822 28.8261 30.0821 28.8253L30.082 28.8233C30.082 28.8223 30.082 28.8214 30.0819 28.8205V28.8189L30.0817 28.8154V28.8143C30.0816 28.8128 30.0816 28.8114 30.0815 28.8098V28.8092L30.0813 28.8053V28.8038C30.0812 28.8028 30.0812 28.8018 30.0812 28.8008L30.0811 28.799L30.081 28.7963L30.0809 28.7944C30.0809 28.7935 30.0808 28.7927 30.0808 28.7918L30.0807 28.7898L30.0806 28.7873C30.0806 28.7866 30.0805 28.786 30.0805 28.7853L30.0804 28.7827L30.0803 28.7808C30.0803 28.78 30.0802 28.779 30.0802 28.7781L30.0801 28.7764L30.08 28.7732L30.0799 28.7719L30.0798 28.7684L30.0797 28.7674L30.0793 28.7582V28.7576C30.0792 28.7563 30.0792 28.7549 30.0791 28.7537L30.079 28.7526C30.079 28.7515 30.0789 28.7503 30.0788 28.7492V28.7477L30.0786 28.7447V28.7431C30.0785 28.7421 30.0785 28.7412 30.0784 28.7402L30.0783 28.7386L30.0781 28.7356V28.734C30.078 28.7331 30.078 28.732 30.0779 28.7312C30.0779 28.7306 30.0779 28.73 30.0778 28.7294L30.0776 28.7265V28.725C30.0775 28.7239 30.0775 28.7228 30.0774 28.7218L30.0773 28.7205C30.0773 28.7193 30.0772 28.7181 30.0771 28.7169V28.716L30.0769 28.7114L30.0768 28.7108L30.0766 28.7069L30.0765 28.7057C30.0765 28.7046 30.0764 28.7035 30.0763 28.7024L30.0762 28.7008L30.0761 28.698L30.076 28.6961C30.0759 28.6953 30.0759 28.6944 30.0758 28.6935C30.0757 28.693 30.0757 28.6921 30.0757 28.6915L30.0755 28.689L30.0754 28.6872L30.0753 28.6845L30.0751 28.6826C30.0751 28.6817 30.075 28.6808 30.075 28.6799L30.0749 28.6781C30.0748 28.6773 30.0748 28.6763 30.0747 28.6754L30.0746 28.6736C30.0745 28.6726 30.0745 28.6715 30.0744 28.6706L30.0743 28.6692L30.0741 28.6655L30.074 28.6646L30.0737 28.66L30.0734 28.6556L30.0733 28.6543L30.0731 28.6511L30.073 28.6497L30.0728 28.6466L30.0727 28.645L30.0725 28.6422L30.0724 28.6405C30.0723 28.6395 30.0723 28.6387 30.0722 28.6377L30.0721 28.6359L30.0719 28.6331L30.0718 28.6314L30.0716 28.6286L30.0715 28.6269L30.0713 28.6239L30.0712 28.6225C30.0711 28.6213 30.071 28.6202 30.0709 28.619L30.0708 28.618C30.0706 28.615 30.0704 28.6118 30.0702 28.6089L30.0701 28.6085C30.07 28.6072 30.0699 28.6057 30.0698 28.6043L30.0697 28.6035L30.0695 28.5999L30.0694 28.5986L30.0691 28.5954L30.069 28.5941C30.0689 28.5931 30.0688 28.5919 30.0688 28.5909L30.0687 28.5895L30.0684 28.5864L30.0683 28.5849C30.0682 28.5838 30.0681 28.583 30.0681 28.5819L30.0679 28.5804C30.0678 28.5793 30.0677 28.5782 30.0677 28.5772L30.0676 28.5759C30.0674 28.5748 30.0674 28.5737 30.0673 28.5725L30.0672 28.5714L30.0669 28.5674L30.0668 28.5669C30.0667 28.5654 30.0666 28.5639 30.0665 28.5624V28.5622C30.0663 28.5607 30.0662 28.5593 30.0661 28.5579L30.066 28.5569L30.0657 28.5535L30.0656 28.5519C30.0655 28.5509 30.0654 28.5499 30.0653 28.5489L30.0652 28.5474L30.065 28.5446L30.0648 28.5429L30.0645 28.54L30.0644 28.5384C30.0643 28.5375 30.0642 28.5364 30.0641 28.5355L30.064 28.534L30.0637 28.5309L30.0636 28.5295L30.0633 28.5265L30.0632 28.5249C30.0631 28.5238 30.063 28.5228 30.0629 28.5216L30.0628 28.5205C30.0625 28.5176 30.0622 28.5145 30.062 28.5115L30.0619 28.5111C30.0618 28.5098 30.0617 28.5084 30.0616 28.507L30.0615 28.5059C30.0614 28.5047 30.0612 28.5037 30.0612 28.5025L30.0611 28.5013C30.061 28.5002 30.0609 28.4991 30.0608 28.498L30.0606 28.4966L30.0603 28.4937C30.0603 28.4931 30.0602 28.4925 30.0601 28.4919L30.0599 28.4893L30.0597 28.4874L30.0594 28.4846L30.0593 28.4831C30.0592 28.4821 30.0591 28.4811 30.059 28.48L30.0589 28.4786L30.0585 28.4752L30.0584 28.4742C30.0583 28.4729 30.0581 28.4716 30.058 28.4704V28.4697C30.0577 28.4666 30.0573 28.4637 30.057 28.4606V28.4603L30.0566 28.4562L30.0565 28.455C30.0564 28.454 30.0563 28.4529 30.0562 28.4518L30.056 28.4502L30.0557 28.4473L30.0555 28.4457L30.0552 28.4429L30.055 28.4412L30.0548 28.4384L30.0546 28.4367L30.0543 28.434L30.0541 28.4323C30.054 28.4313 30.0539 28.4303 30.0538 28.4294L30.0536 28.4279C30.0535 28.4269 30.0534 28.4257 30.0533 28.4248L30.0531 28.4234L30.0528 28.4201L30.0526 28.4189L30.0521 28.4145V28.414L30.0517 28.4101L30.0515 28.4088L30.0512 28.4056L30.051 28.4042C30.0509 28.4032 30.0507 28.4021 30.0506 28.4011L30.0505 28.3998L30.0501 28.3967L30.0499 28.3952L30.0496 28.3923L30.0494 28.3907C30.0493 28.3897 30.0492 28.3887 30.0491 28.3878L30.0489 28.3863C30.0488 28.3852 30.0487 28.3843 30.0485 28.3833L30.0484 28.3819L30.048 28.3789L30.0478 28.3773L30.0475 28.3743L30.0473 28.373C30.0471 28.3717 30.047 28.3704 30.0468 28.3691L30.0467 28.3686C30.0464 28.3656 30.046 28.3626 30.0457 28.3597L30.0455 28.3584C30.0454 28.3574 30.0453 28.3563 30.0451 28.3553L30.045 28.3538L30.0446 28.3509L30.0444 28.3493L30.0441 28.3464L30.0439 28.3449L30.0435 28.3421L30.0433 28.3403L30.043 28.3376L30.0428 28.3359L30.0424 28.333L30.0422 28.3316C30.042 28.3304 30.0419 28.3293 30.0418 28.3282L30.0417 28.3271L30.0412 28.3234L30.0411 28.3227L30.0399 28.3137L30.0398 28.3131L30.0393 28.3093L30.0392 28.308L30.0388 28.3049L30.0386 28.3034L30.0382 28.3005L30.038 28.2991L30.0376 28.2961L30.0374 28.2946C30.0373 28.2936 30.0371 28.2926 30.037 28.2916L30.0368 28.2901L30.0365 28.2872C30.0363 28.2867 30.0363 28.2861 30.0362 28.2856L30.0358 28.2826L30.0356 28.2813L30.0352 28.2779L30.035 28.2769L30.0345 28.2727L30.0344 28.2725C30.034 28.2694 30.0336 28.2665 30.0332 28.2634L30.0331 28.263L30.0326 28.2591L30.0324 28.2579L30.0319 28.2547L30.0317 28.2534L30.0313 28.2504L30.0311 28.2489L30.0306 28.2459L30.0305 28.2445C30.0303 28.2435 30.0302 28.2425 30.03 28.2415L30.0298 28.24C30.0297 28.239 30.0295 28.2379 30.0294 28.2369L30.0292 28.2357L30.0288 28.2324L30.0286 28.2313L30.028 28.2274L30.0279 28.2269L30.0259 28.2135V28.213C30.0257 28.2116 30.0255 28.2104 30.0253 28.209L30.0252 28.2081L30.0247 28.2047L30.0245 28.2035C30.0243 28.2025 30.0241 28.2013 30.024 28.2002L30.0238 28.1991C30.0236 28.198 30.0234 28.197 30.0233 28.1958L30.0231 28.1946C30.0229 28.1935 30.0228 28.1924 30.0226 28.1913L30.0225 28.1903L30.0219 28.1867L30.0218 28.1859L30.0211 28.1819V28.1815C30.0208 28.18 30.0207 28.1786 30.0204 28.1771C30.0197 28.1725 30.019 28.168 30.0182 28.1635V28.1631L30.0176 28.1592L30.0174 28.1581L30.0168 28.1547L30.0166 28.1537L30.0161 28.1504L30.0159 28.1492L30.0154 28.1459L30.0152 28.1448L30.0147 28.1416L30.0145 28.1404L30.0139 28.1368L30.0138 28.136C30.0136 28.1347 30.0134 28.1334 30.0132 28.1321L30.0131 28.1316C30.0124 28.1271 30.0116 28.1228 30.0109 28.1182L30.0108 28.1178C30.0106 28.1164 30.0103 28.1152 30.0101 28.1139L30.0099 28.1129L30.0094 28.1094L30.0092 28.1084L30.0087 28.1051L30.0084 28.1038C30.0082 28.1027 30.0081 28.1017 30.0079 28.1006L30.0077 28.0995L30.0071 28.0962L30.0069 28.0951C30.0067 28.094 30.0065 28.0928 30.0063 28.0917L30.0062 28.0907C30.006 28.0895 30.0058 28.0884 30.0056 28.0873L30.0054 28.0862L30.0047 28.0822V28.0819C30.0039 28.0774 30.0031 28.073 30.0023 28.0685V28.0682C30.002 28.0668 30.0018 28.0655 30.0016 28.0641L30.0015 28.0636L30.0008 28.0597L30.0006 28.0589C30.0004 28.0577 30.0002 28.0565 30 28.0553L29.9998 28.0545C29.9996 28.0534 29.9994 28.0522 29.9992 28.051L29.999 28.0499L29.9983 28.0465L29.9982 28.0456C29.9979 28.0443 29.9977 28.0432 29.9975 28.0419L29.9974 28.0412C29.9971 28.0399 29.9969 28.0385 29.9967 28.0372L29.9966 28.0368C29.9955 28.0308 29.9944 28.025 29.9933 28.019L29.9932 28.0185L29.9925 28.0147L29.9923 28.0137C29.9921 28.0125 29.9919 28.0116 29.9917 28.0103L29.9915 28.0093L29.9908 28.0059L29.9907 28.0049C29.9905 28.0038 29.9902 28.0026 29.99 28.0014L29.9898 28.0006L29.9891 27.997L29.989 27.9961L29.9882 27.9923L29.9881 27.9918C29.9879 27.9904 29.9876 27.989 29.9873 27.9876V27.9874C29.9861 27.9815 29.985 27.9756 29.9838 27.9697L29.9837 27.9691L29.983 27.9653L29.9828 27.9645C29.9826 27.9634 29.9823 27.9621 29.9821 27.961L29.9819 27.96C29.9817 27.9589 29.9814 27.9577 29.9812 27.9566L29.981 27.9556C29.9808 27.9545 29.9806 27.9533 29.9803 27.9522L29.9802 27.9513L29.9794 27.9476L29.9793 27.947L29.9785 27.943L29.9784 27.9426C29.9769 27.9351 29.9754 27.9278 29.9739 27.9204V27.9203C29.9736 27.9189 29.9733 27.9175 29.973 27.9161L29.9729 27.9155C29.9726 27.9142 29.9724 27.913 29.9721 27.9117L29.972 27.911L29.9712 27.9074L29.971 27.9065L29.9703 27.9028L29.9702 27.9023L29.9694 27.8983L29.9693 27.8979C29.9677 27.8905 29.9661 27.8831 29.9646 27.8757L29.9637 27.8715L29.9635 27.8708C29.9632 27.8695 29.963 27.8684 29.9627 27.8672L29.9625 27.8663C29.9623 27.8652 29.962 27.864 29.9618 27.8629L29.9615 27.8619C29.9613 27.8608 29.961 27.8596 29.9608 27.8585L29.9606 27.8575C29.9603 27.8564 29.9601 27.8553 29.9599 27.8542L29.9596 27.8532C29.9594 27.852 29.9591 27.8508 29.9588 27.8496L29.9586 27.8489L29.9578 27.8449L29.9577 27.8446C29.9567 27.8402 29.9557 27.8358 29.9548 27.8314L29.9547 27.8311C29.9544 27.8298 29.9541 27.8284 29.9538 27.8271L29.9536 27.8263C29.9534 27.8251 29.9531 27.824 29.9528 27.8227L29.9527 27.8219L29.9519 27.8184L29.9516 27.8174C29.9514 27.8163 29.9511 27.8152 29.9509 27.8141L29.9506 27.8131L29.9498 27.8096L29.9497 27.8087L29.9488 27.805L29.9487 27.8046C29.9484 27.8032 29.9481 27.802 29.9478 27.8006L29.9477 27.8001C29.9463 27.7942 29.945 27.7885 29.9436 27.7826C29.9435 27.7824 29.9436 27.7826 29.9435 27.7824C29.9432 27.781 29.9429 27.7797 29.9426 27.7783L29.9425 27.7778L29.9416 27.774L29.9414 27.7733C29.9411 27.772 29.9408 27.7708 29.9405 27.7695L29.9404 27.769L29.9395 27.7653L29.9393 27.7645L29.9385 27.7608L29.9383 27.7602L29.9374 27.7562L29.9373 27.756C29.9352 27.7471 29.9331 27.7385 29.931 27.7296L29.9309 27.7293C29.9306 27.728 29.9302 27.7266 29.9299 27.7253L29.9298 27.7249L29.9288 27.721L29.9287 27.7205L29.9277 27.7165L29.9276 27.7161L29.9267 27.7122L29.9266 27.7117C29.924 27.7015 29.9215 27.6913 29.9189 27.6811L29.9178 27.6768L29.9177 27.6766L29.9166 27.6724L29.9156 27.6682L29.9155 27.6678L29.9144 27.6637C29.9144 27.6635 29.9144 27.6637 29.9144 27.6635C29.9118 27.6534 29.9091 27.6432 29.9064 27.6331L29.9063 27.6327C29.9059 27.6313 29.9056 27.63 29.9053 27.6287L29.9052 27.6284C29.9048 27.6271 29.9045 27.6257 29.9041 27.6244L29.904 27.6239C29.9037 27.6226 29.9033 27.6212 29.903 27.62L29.9029 27.6197C29.9002 27.6096 29.8975 27.5995 29.8947 27.5894L29.8946 27.5891L29.8935 27.585L29.8934 27.5847L29.8923 27.5807L29.8922 27.5804L29.8911 27.5763V27.5761C29.8907 27.5748 29.8903 27.5734 29.89 27.572L29.8898 27.5718C29.887 27.5616 29.8842 27.5516 29.8814 27.5414C29.881 27.54 29.8806 27.5386 29.8802 27.5372L29.8801 27.5369L29.8789 27.5328V27.5326C29.8785 27.5313 29.8781 27.5299 29.8777 27.5285L29.8776 27.5282C29.8743 27.5167 29.871 27.5053 29.8676 27.4938L29.8675 27.4936L29.8664 27.4895L29.8663 27.4892L29.8651 27.4853L29.8649 27.4849C29.8645 27.4835 29.8642 27.4822 29.8638 27.4809L29.8637 27.4807C29.8607 27.4706 29.8577 27.4606 29.8547 27.4505C29.8543 27.4491 29.8539 27.4477 29.8534 27.4463V27.4462L29.8521 27.442V27.4418C29.8517 27.4404 29.8513 27.4391 29.8508 27.4377V27.4376L29.8495 27.4334V27.4333C29.846 27.4219 29.8425 27.4105 29.8389 27.3991L29.8388 27.3987L29.8375 27.3948V27.3945C29.8334 27.3817 29.8294 27.3689 29.8252 27.3561L29.8239 27.3519L29.8238 27.3517L29.8225 27.3478L29.8224 27.3473L29.821 27.3433V27.3432C29.8178 27.3334 29.8145 27.3234 29.8113 27.3135L29.8111 27.3131L29.8098 27.3092L29.8097 27.3089L29.8084 27.305L29.8083 27.3046L29.807 27.3007L29.8069 27.3004C29.8031 27.2891 29.7993 27.2779 29.7954 27.2666V27.2664C29.7949 27.2651 29.7945 27.2638 29.794 27.2625L29.7939 27.2621L29.7926 27.2583L29.7925 27.2579C29.792 27.2567 29.7916 27.2553 29.7912 27.2541L29.791 27.2537C29.7871 27.2425 29.7832 27.2312 29.7793 27.2201V27.2199C29.7788 27.2185 29.7783 27.2173 29.7778 27.2159V27.2156C29.7773 27.2143 29.7769 27.2131 29.7764 27.2118L29.7762 27.2113C29.7603 27.1665 29.7438 27.1217 29.7267 27.0774L29.7266 27.0772C29.7213 27.0633 29.7159 27.0496 29.7104 27.0357C29.7098 27.0343 29.7093 27.0329 29.7088 27.0315H29.7087C29.7038 27.0191 29.6988 27.0067 29.6938 26.9943C29.6938 26.9941 29.6939 26.9944 29.6938 26.9942C29.6871 26.9777 29.6804 26.9613 29.6735 26.9449L29.6734 26.9447C29.662 26.9173 29.6505 26.8902 29.6386 26.863L29.6385 26.8627L29.6368 26.8589V26.8588C29.6362 26.8574 29.6356 26.8561 29.635 26.8548V26.8547C29.6303 26.8438 29.6255 26.833 29.6206 26.8222V26.8221C29.62 26.8208 29.6194 26.8196 29.6189 26.8182L29.6188 26.818C29.6182 26.8168 29.6177 26.8155 29.6171 26.8143L29.6169 26.8139C29.6121 26.8032 29.6072 26.7925 29.6024 26.7817L29.6023 26.7816C29.6017 26.7802 29.6011 26.779 29.6005 26.7777L29.5987 26.7738L29.5986 26.7735L29.5968 26.7697L29.5967 26.7696C29.5961 26.7682 29.5956 26.767 29.595 26.7656L29.5949 26.7655C29.5906 26.7561 29.5863 26.7468 29.5819 26.7374L29.5818 26.7373L29.5801 26.7335L29.5799 26.7332L29.5782 26.7295L29.578 26.7292C29.5775 26.728 29.5769 26.7267 29.5763 26.7254L29.5762 26.7253C29.5712 26.7145 29.5661 26.704 29.561 26.6933V26.6932C29.5597 26.6905 29.5585 26.688 29.5573 26.6853L29.5572 26.6852C29.552 26.6745 29.5469 26.6639 29.5418 26.6533L29.5417 26.6532L29.5398 26.6494C29.5398 26.6492 29.5399 26.6494 29.5398 26.6493L29.5379 26.6454L29.5378 26.6452L29.5359 26.6414V26.6413C29.5307 26.6307 29.5255 26.6202 29.5202 26.6096L29.5201 26.6095C29.5195 26.6082 29.5189 26.607 29.5182 26.6057L29.5181 26.6055C29.5108 26.591 29.5036 26.5767 29.4962 26.5622L29.4961 26.562C29.4955 26.5608 29.4948 26.5596 29.4942 26.5583L29.4941 26.5581C29.4888 26.5476 29.4833 26.5371 29.4779 26.5268L29.4778 26.5266C29.4771 26.5253 29.4765 26.5241 29.4759 26.5228H29.4758C29.4751 26.5215 29.4745 26.5202 29.4738 26.5189C29.4676 26.5071 29.4614 26.4954 29.4552 26.4836C29.4545 26.4824 29.4538 26.4811 29.4532 26.4798L29.453 26.4795L29.451 26.4758C29.4447 26.4641 29.4384 26.4525 29.4321 26.4408L29.432 26.4407C29.4313 26.4394 29.4307 26.4383 29.43 26.437L29.4299 26.4368L29.4279 26.4331L29.4278 26.4329C29.4221 26.4226 29.4165 26.4124 29.4108 26.4021V26.402L29.4087 26.3983C29.4086 26.3981 29.4087 26.3983 29.4086 26.3982L29.4066 26.3945L29.4064 26.3942L29.4044 26.3906L29.4043 26.3905L29.4022 26.3868L29.4021 26.3866C29.3978 26.3789 29.3936 26.3713 29.3892 26.3636L29.3891 26.3635C29.3877 26.361 29.3863 26.3585 29.3849 26.3561L29.3847 26.3557C29.384 26.3545 29.3834 26.3533 29.3827 26.3522L29.3825 26.352C29.3767 26.3418 29.3709 26.3316 29.365 26.3214C29.3649 26.3213 29.3651 26.3216 29.365 26.3214L29.3628 26.3177L29.3627 26.3174C29.362 26.3163 29.3613 26.3151 29.3607 26.314L29.3604 26.3136L29.3585 26.3102L29.3582 26.3097C29.3523 26.2996 29.3465 26.2896 29.3405 26.2796L29.3403 26.2793C29.3389 26.2769 29.3374 26.2744 29.336 26.272L29.3359 26.2718C29.3352 26.2706 29.3345 26.2694 29.3337 26.2682L29.3336 26.2681C29.3284 26.2592 29.3232 26.2504 29.3178 26.2417V26.2416L29.3156 26.2379L29.3155 26.2378C29.3148 26.2366 29.3141 26.2354 29.3134 26.2342L29.3132 26.2339C29.3125 26.2328 29.3118 26.2315 29.3111 26.2304L29.3109 26.2302L29.3088 26.2267L29.3087 26.2264C29.3026 26.2164 29.2965 26.2065 29.2904 26.1965L29.2903 26.1963L29.2881 26.1928L29.288 26.1926C29.2872 26.1914 29.2866 26.1902 29.2858 26.189L29.2857 26.1888C29.2795 26.1788 29.2734 26.169 29.2671 26.1591L29.267 26.1588C29.2663 26.1577 29.2655 26.1565 29.2648 26.1553L29.2647 26.1551C29.2639 26.1539 29.2633 26.1529 29.2624 26.1516L29.2623 26.1515L29.2601 26.1479L29.26 26.1478C29.2592 26.1465 29.2585 26.1454 29.2577 26.1441C29.253 26.1366 29.2482 26.1292 29.2435 26.1218L29.2412 26.1182L29.241 26.1179L29.2389 26.1145L29.2386 26.1141L29.2364 26.1107L29.2363 26.1105L29.2341 26.1071L29.2339 26.1068C29.2284 26.0982 29.2228 26.0897 29.2172 26.0811C29.2171 26.0809 29.2173 26.0812 29.2172 26.081C29.2165 26.0799 29.2157 26.0787 29.2149 26.0775L29.2147 26.0772C29.2139 26.076 29.2132 26.0749 29.2124 26.0738L29.2123 26.0736C29.2116 26.0725 29.2108 26.0713 29.2101 26.0702L29.2099 26.0699C29.2035 26.0601 29.1971 26.0504 29.1907 26.0407L29.1905 26.0404L29.1882 26.037L29.1881 26.0368L29.1858 26.0333L29.1857 26.0332C29.1784 26.0222 29.1711 26.0114 29.1637 26.0005L29.1636 26.0003L29.1613 25.9969L29.1611 25.9966C29.1529 25.9846 29.1447 25.9725 29.1365 25.9606L29.1363 25.9603C29.1355 25.9593 29.1347 25.958 29.134 25.957L29.1338 25.9567C29.1331 25.9556 29.1324 25.9546 29.1316 25.9535L29.1313 25.953C29.1305 25.952 29.1297 25.9508 29.129 25.9497L29.1288 25.9495C29.123 25.9411 29.1172 25.9329 29.1113 25.9245L29.1111 25.9242L29.1088 25.9209L29.1086 25.9206L29.1062 25.9172L29.1061 25.9171C29.0994 25.9075 29.0926 25.898 29.0858 25.8885L29.0832 25.8849V25.8848C29.0824 25.8837 29.0816 25.8826 29.0808 25.8815L29.0805 25.8811L29.0782 25.8779L29.078 25.8776L29.0755 25.8742C29.0695 25.8659 29.0635 25.8576 29.0575 25.8493L29.055 25.8458L29.0548 25.8456C29.0541 25.8446 29.0532 25.8434 29.0525 25.8424L29.0522 25.842L29.0499 25.8389L29.0496 25.8384C29.0427 25.829 29.0358 25.8197 29.0289 25.8104L29.0288 25.8102L29.0263 25.8068L29.0262 25.8067C29.0254 25.8056 29.0245 25.8045 29.0237 25.8034L29.0235 25.8032L29.021 25.7999L29.0209 25.7997L29.0184 25.7962C29.014 25.7904 29.0096 25.7846 29.0052 25.7787H29.0051C29.0043 25.7776 29.0034 25.7764 29.0026 25.7753L29.0023 25.7749C29.0016 25.7739 29.0008 25.7729 29 25.7719L28.9997 25.7715L28.9974 25.7684L28.9971 25.7679C28.9963 25.7669 28.9956 25.7659 28.9948 25.7649L28.9945 25.7646L28.992 25.7613L28.9919 25.7612C28.9857 25.7531 28.9795 25.745 28.9733 25.7369C28.9724 25.7357 28.9715 25.7346 28.9707 25.7335L28.9705 25.7333L28.9679 25.73L28.9678 25.7299L28.9653 25.7266L28.9651 25.7263C28.958 25.7172 28.9508 25.7079 28.9437 25.6988L28.9435 25.6986L28.941 25.6954L28.9409 25.6952L28.9383 25.6919L28.9382 25.6918L28.9355 25.6884C28.9283 25.6793 28.921 25.6701 28.9137 25.661C28.9128 25.6598 28.9119 25.6587 28.911 25.6576L28.9109 25.6575C28.9018 25.6461 28.8926 25.6347 28.8834 25.6234C28.8816 25.6211 28.8797 25.6189 28.8779 25.6166C28.6857 25.381 28.4741 25.1623 28.2452 24.9628C27.9277 24.6864 27.4477 24.7214 27.1731 25.041C26.8989 25.3603 26.9333 25.8429 27.2501 26.1195C28.8374 27.5018 29.0112 29.9178 27.6381 31.5157C26.9162 32.3558 25.8673 32.8386 24.764 32.8386C24.0379 32.8397 23.3268 32.6305 22.7156 32.236C22.3623 32.0078 21.8921 32.1111 21.6654 32.4667C21.439 32.8218 21.541 33.2944 21.8933 33.5231C22.0303 33.6116 22.1715 33.6938 22.3168 33.7699L22.317 33.77C22.3204 33.7718 22.3239 33.7736 22.3273 33.7754L22.3278 33.7757C22.3313 33.7775 22.3346 33.7792 22.3382 33.7811L22.3384 33.7812L22.3418 33.7829L22.3422 33.7831C22.3456 33.7849 22.3491 33.7867 22.3525 33.7885L22.3529 33.7886C22.3563 33.7904 22.3597 33.7921 22.3631 33.7939L22.3637 33.7942C22.367 33.7959 22.3707 33.7977 22.374 33.7994L22.3743 33.7996C22.3778 33.8013 22.3813 33.8031 22.3847 33.8048L22.3851 33.805C22.3863 33.8056 22.3872 33.8061 22.3885 33.8067L22.3891 33.807C22.3923 33.8086 22.3957 33.8103 22.3989 33.8119L22.4001 33.8125C22.4034 33.8142 22.4064 33.8157 22.4097 33.8173L22.4107 33.8178L22.4139 33.8194L22.414 33.8195L22.4205 33.8227L22.4214 33.8232L22.4245 33.8247L22.4255 33.8252C22.4275 33.8261 22.4294 33.8271 22.4314 33.8281L22.4321 33.8284L22.4352 33.8299L22.4364 33.8305C22.4384 33.8315 22.4403 33.8324 22.4423 33.8334L22.4429 33.8337L22.4457 33.8351L22.4473 33.8359L22.45 33.8372L22.4512 33.8378C22.453 33.8387 22.4544 33.8394 22.4563 33.8403L22.458 33.8411L22.4608 33.8425L22.462 33.8431C22.4637 33.8439 22.4654 33.8447 22.4671 33.8456L22.4687 33.8463L22.4714 33.8476L22.4731 33.8485L22.478 33.8508L22.4794 33.8515L22.4821 33.8528L22.4839 33.8537L22.4864 33.8548C22.4877 33.8555 22.4889 33.856 22.4901 33.8566L22.4927 33.8579L22.4946 33.8588L22.4972 33.86L22.4992 33.8609L22.5035 33.863L22.5053 33.8638L22.5078 33.865L22.5101 33.8661C22.5113 33.8667 22.5124 33.8672 22.5137 33.8678L22.5163 33.869L22.5186 33.8701L22.5207 33.8711L22.5241 33.8727L22.5269 33.874L22.5293 33.8751L22.5315 33.8761L22.5339 33.8772L22.5377 33.879L22.5402 33.8801L22.5422 33.881L22.5447 33.8822L22.5471 33.8833L22.5507 33.885L22.5531 33.886L22.5554 33.8872L22.5579 33.8883L22.5606 33.8896C22.5617 33.89 22.5628 33.8905 22.5639 33.891L22.5661 33.892L22.5687 33.8933L22.5706 33.8941C22.572 33.8948 22.5734 33.8954 22.5748 33.896L22.5766 33.8968L22.5794 33.8981L22.5814 33.899C22.5827 33.8996 22.584 33.9002 22.5853 33.9008L22.5873 33.9017L22.5902 33.903L22.5922 33.9039L22.5955 33.9053L22.5976 33.9063L22.6011 33.9078L22.6029 33.9086L22.606 33.91L22.6076 33.9108L22.6119 33.9127L22.6137 33.9134L22.6167 33.9148L22.6184 33.9156L22.6227 33.9175L22.6244 33.9182L22.6275 33.9195L22.6293 33.9204C22.6308 33.921 22.6323 33.9217 22.6337 33.9223L22.6346 33.9227L22.6384 33.9244L22.64 33.9251L22.6438 33.9268L22.6447 33.9271L22.6492 33.9291L22.6508 33.9298L22.6542 33.9313L22.6556 33.9319C22.6571 33.9325 22.6585 33.9332 22.66 33.9339L22.6614 33.9344L22.665 33.936L22.6664 33.9366L22.6709 33.9386L22.6721 33.9391C22.6733 33.9396 22.6745 33.9401 22.6757 33.9406L22.6771 33.9412L22.6818 33.9432L22.6821 33.9434L22.6867 33.9453L22.6879 33.9458L22.6922 33.9477L22.6927 33.9479C22.6943 33.9486 22.696 33.9493 22.6975 33.9499L22.6986 33.9504L22.7026 33.9521L22.7037 33.9525L22.7084 33.9545L22.7094 33.9549L22.7132 33.9565L22.7146 33.9571C22.7162 33.9578 22.7178 33.9585 22.7193 33.9591L22.7198 33.9593C22.7213 33.9599 22.7227 33.9605 22.7242 33.9611L22.7254 33.9616L22.7301 33.9636C22.7303 33.9637 22.7301 33.9636 22.7302 33.9637L22.735 33.9656L22.7363 33.9662L22.7404 33.9679L22.7412 33.9682L22.746 33.9702L22.747 33.9706L22.7513 33.9723L22.752 33.9727L22.757 33.9747L22.7576 33.975L22.762 33.9768L22.763 33.9772C22.7663 33.9785 22.7696 33.9799 22.7728 33.9812L22.7739 33.9817L22.7783 33.9834L22.7789 33.9836C22.7805 33.9843 22.7822 33.985 22.7838 33.9856L22.7848 33.986L22.7891 33.9877L22.7898 33.988L22.7948 33.99L22.7955 33.9903L22.7998 33.992L22.8008 33.9924C22.8042 33.9937 22.8075 33.9951 22.8109 33.9964L22.8116 33.9968C22.815 33.9981 22.8184 33.9994 22.8218 34.0008L22.8226 34.0011L22.8275 34.003L22.8276 34.0031C22.8294 34.0038 22.831 34.0044 22.8328 34.0051L22.8335 34.0054C22.835 34.006 22.8366 34.0066 22.8381 34.0072L22.8387 34.0074L22.8438 34.0095L22.8443 34.0096L22.8489 34.0114L22.8497 34.0118C22.8531 34.0131 22.8565 34.0144 22.8599 34.0157L22.8607 34.016L22.8657 34.0179V34.018L22.8709 34.02L22.8716 34.0202L22.8763 34.022L22.8768 34.0222L22.8819 34.0242L22.8825 34.0244L22.887 34.0261L22.8879 34.0265L22.893 34.0284H22.8932L22.8981 34.0303L22.8989 34.0306C22.9023 34.0319 22.9057 34.0331 22.9091 34.0344L22.9099 34.0347L22.9149 34.0366H22.915C22.9167 34.0373 22.9185 34.0379 22.9203 34.0386L22.9208 34.0388C22.9224 34.0394 22.924 34.04 22.9257 34.0407L22.926 34.0408L22.9313 34.0428H22.9315L22.9367 34.0447L22.9371 34.0449L22.9476 34.0488L22.9482 34.0489C22.9517 34.0502 22.9552 34.0515 22.9588 34.0528L22.9591 34.053L22.9644 34.0549C22.9646 34.0549 22.9643 34.0548 22.9644 34.0549L22.9699 34.0568L22.9701 34.0569L22.9751 34.0587L22.9757 34.0589C22.9792 34.0602 22.9827 34.0614 22.9861 34.0627L22.9868 34.0629C22.9903 34.0641 22.9938 34.0654 22.9973 34.0667L22.9979 34.0669C23.0014 34.0681 23.0049 34.0694 23.0084 34.0706L23.0089 34.0708L23.0139 34.0725L23.0143 34.0726L23.0196 34.0745L23.0199 34.0746L23.025 34.0764L23.0254 34.0765C23.029 34.0778 23.0325 34.079 23.0361 34.0802L23.0366 34.0804C23.0402 34.0816 23.0436 34.0828 23.0472 34.0841L23.0476 34.0842C23.0531 34.0861 23.0584 34.0879 23.0639 34.0898L23.0642 34.0899C23.0678 34.0911 23.0714 34.0923 23.075 34.0935L23.0754 34.0936C23.079 34.0949 23.0826 34.0961 23.0862 34.0973L23.0865 34.0974C23.0902 34.0986 23.0938 34.0998 23.0974 34.101L23.0976 34.1011C23.1031 34.1029 23.1087 34.1047 23.1142 34.1065H23.1143C23.1179 34.1078 23.1215 34.1089 23.1252 34.1101L23.1256 34.1103C23.1292 34.1115 23.1329 34.1126 23.1365 34.1138L23.1367 34.1139C23.1404 34.115 23.144 34.1162 23.1477 34.1174H23.1478L23.1533 34.1192H23.1534C23.1572 34.1204 23.1608 34.1216 23.1646 34.1228C23.1683 34.1239 23.172 34.1251 23.1757 34.1263L23.1759 34.1264C23.1796 34.1275 23.1833 34.1287 23.187 34.1299H23.1871C23.1964 34.1328 23.2057 34.1356 23.2151 34.1385H23.2153C23.219 34.1397 23.2226 34.1408 23.2264 34.1419C23.2266 34.1419 23.2264 34.1419 23.2266 34.1419C23.2303 34.1431 23.234 34.1442 23.2377 34.1453C23.2379 34.1453 23.2376 34.1453 23.2378 34.1453L23.2434 34.147C23.2471 34.1481 23.2509 34.1493 23.2546 34.1504H23.2548C23.2585 34.1516 23.2621 34.1526 23.2658 34.1537L23.2662 34.1538C23.2699 34.1549 23.2735 34.156 23.2772 34.157L23.2774 34.1571C23.2811 34.1582 23.2849 34.1593 23.2886 34.1604H23.2887C23.2981 34.1631 23.3075 34.1658 23.3169 34.1685L23.3171 34.1686C23.3209 34.1696 23.3246 34.1707 23.3284 34.1717L23.334 34.1733H23.3341C23.3379 34.1744 23.3417 34.1754 23.3454 34.1765H23.3455C23.3492 34.1775 23.353 34.1786 23.3567 34.1796L23.357 34.1797C23.3607 34.1807 23.3645 34.1817 23.3682 34.1828H23.3683C23.3721 34.1838 23.3759 34.1848 23.3796 34.1859H23.3798L23.3854 34.1874C23.3892 34.1884 23.3929 34.1894 23.3967 34.1904L23.3969 34.1905C23.4007 34.1915 23.4044 34.1925 23.4082 34.1935H23.4084C23.4121 34.1945 23.416 34.1955 23.4197 34.1965C23.4292 34.199 23.4388 34.2014 23.4483 34.2039H23.4484C23.4523 34.2049 23.456 34.2058 23.4598 34.2068L23.4599 34.2069C23.4637 34.2078 23.4675 34.2088 23.4713 34.2097H23.4714C23.4809 34.2121 23.4904 34.2145 23.5001 34.2169C23.504 34.2178 23.5077 34.2187 23.5115 34.2197H23.5117L23.5173 34.2211H23.5174C23.5212 34.222 23.525 34.2229 23.5289 34.2238L23.529 34.2239C23.5327 34.2248 23.5364 34.2257 23.5402 34.2265L23.5406 34.2267C23.5444 34.2276 23.5481 34.2284 23.5518 34.2293L23.5522 34.2294C23.556 34.2303 23.5597 34.2311 23.5636 34.232C23.5694 34.2334 23.5751 34.2347 23.5808 34.236L23.581 34.2361L23.5924 34.2386L23.5927 34.2387C23.5964 34.2396 23.6003 34.2404 23.604 34.2413H23.6043C23.6081 34.2422 23.6119 34.243 23.6157 34.2439H23.6158L23.6215 34.2451L23.6216 34.2452C23.6254 34.246 23.6292 34.2468 23.633 34.2476L23.6334 34.2477C23.6371 34.2485 23.6409 34.2494 23.6447 34.2501L23.645 34.2502C23.6488 34.251 23.6526 34.2519 23.6564 34.2527H23.6567C23.6624 34.2539 23.6682 34.2551 23.674 34.2564C23.6779 34.2572 23.6817 34.258 23.6856 34.2588H23.6858C23.6896 34.2596 23.6934 34.2604 23.6973 34.2612H23.6974C23.7032 34.2623 23.709 34.2635 23.7149 34.2647L23.7264 34.267L23.7267 34.2671C23.7305 34.2678 23.7344 34.2686 23.7381 34.2693L23.7385 34.2694C23.7422 34.2702 23.7461 34.2709 23.7499 34.2716L23.7502 34.2717C23.7559 34.2728 23.7617 34.2739 23.7674 34.275L23.7677 34.2751C23.7715 34.2758 23.7753 34.2765 23.7791 34.2772L23.7796 34.2773C23.7834 34.2781 23.7871 34.2787 23.7909 34.2794L23.7914 34.2796L23.7969 34.2806H23.797L23.8028 34.2816L23.803 34.2817L23.8085 34.2827L23.8089 34.2828C23.8126 34.2835 23.8165 34.2842 23.8202 34.2848L23.8207 34.2849C23.8244 34.2856 23.8282 34.2863 23.832 34.2869L23.8325 34.2871C23.8363 34.2877 23.84 34.2884 23.8438 34.289L23.8444 34.2891L23.8498 34.2901H23.85L23.8558 34.2911H23.8559L23.8615 34.2921L23.8619 34.2922C23.8656 34.2928 23.8695 34.2935 23.8732 34.2941L23.8739 34.2942C23.8776 34.2949 23.8814 34.2955 23.8851 34.2961L23.8857 34.2962L23.8912 34.2972H23.8913L23.8971 34.2981L23.8975 34.2982L23.9029 34.2991L23.9033 34.2992L23.9091 34.3001L23.9146 34.301L23.9153 34.3011C23.919 34.3017 23.9228 34.3023 23.9265 34.3029L23.9272 34.303C23.9309 34.3036 23.9347 34.3042 23.9385 34.3048L23.9391 34.3049L23.9446 34.3058H23.9447L23.9505 34.3067H23.9507L23.9562 34.3075L23.9567 34.3076L23.9624 34.3085H23.9625L23.968 34.3093L23.9688 34.3094C23.9725 34.31 23.9762 34.3105 23.9799 34.311L23.9808 34.3112L23.9861 34.312H23.9863L23.9919 34.3128L23.9927 34.3129L23.9977 34.3137L23.9984 34.3138L24.0041 34.3146H24.0044L24.0096 34.3154L24.0104 34.3155C24.0142 34.316 24.0179 34.3166 24.0216 34.3171L24.0224 34.3172C24.0261 34.3177 24.0298 34.3182 24.0336 34.3187L24.0344 34.3188L24.0396 34.3195L24.04 34.3196L24.0457 34.3204H24.0462L24.0515 34.3212H24.052L24.0577 34.322H24.0579L24.0633 34.3227L24.0641 34.3228C24.0679 34.3233 24.0716 34.3238 24.0753 34.3243L24.0762 34.3244L24.0816 34.3251H24.0817L24.0874 34.3259L24.0881 34.326L24.0932 34.3266L24.0939 34.3267L24.0996 34.3274L24.1001 34.3275L24.1051 34.3281L24.1062 34.3282C24.1099 34.3287 24.1136 34.3292 24.1172 34.3296L24.1182 34.3297C24.1219 34.3302 24.1255 34.3306 24.1292 34.331L24.1305 34.3312L24.1354 34.3317L24.1359 34.3318L24.1415 34.3325L24.1423 34.3326L24.1472 34.3331L24.148 34.3332L24.1537 34.3339H24.154L24.1592 34.3345L24.1602 34.3346C24.1639 34.335 24.1675 34.3354 24.1712 34.3359L24.1725 34.336L24.1773 34.3365L24.178 34.3366L24.1834 34.3372L24.1845 34.3373L24.1894 34.3379H24.1901L24.1957 34.3386H24.1964L24.2013 34.3391L24.2022 34.3392C24.206 34.3396 24.2097 34.34 24.2134 34.3404L24.2144 34.3405C24.2181 34.3409 24.2218 34.3413 24.2255 34.3417L24.2265 34.3418L24.2317 34.3423L24.2321 34.3424L24.2377 34.3429L24.2386 34.343L24.2435 34.3435L24.2443 34.3436L24.2499 34.3441L24.2505 34.3442L24.2556 34.3447L24.2565 34.3448C24.2603 34.3452 24.2639 34.3455 24.2676 34.3458L24.2688 34.3459L24.274 34.3464H24.2743L24.2799 34.3469L24.2809 34.3471L24.286 34.3475L24.2865 34.3476L24.2922 34.3481H24.2929L24.2979 34.3486L24.2989 34.3487L24.3045 34.3492H24.3046L24.31 34.3496L24.3111 34.3497C24.3148 34.3501 24.3185 34.3504 24.3222 34.3507L24.3235 34.3508L24.3284 34.3512H24.3289L24.3345 34.3517L24.3355 34.3518L24.3403 34.3521L24.3413 34.3522L24.3468 34.3526L24.3476 34.3527L24.3524 34.353L24.3535 34.3531L24.359 34.3535L24.3593 34.3536L24.3645 34.354L24.3659 34.3541L24.3708 34.3544L24.3714 34.3545L24.3768 34.3549L24.3781 34.355L24.3827 34.3553L24.3837 34.3554L24.3892 34.3558H24.3902L24.3948 34.3562L24.3961 34.3563L24.4015 34.3566L24.4022 34.3567L24.4071 34.357L24.4084 34.3571C24.4121 34.3573 24.4157 34.3575 24.4194 34.3578L24.4207 34.3579L24.4256 34.3582H24.4262L24.4317 34.3586H24.4329L24.4376 34.3589L24.4386 34.359L24.4441 34.3593L24.4451 34.3594L24.4497 34.3597L24.451 34.3598L24.4565 34.3601H24.4568L24.462 34.3604H24.4633L24.4684 34.3607L24.4689 34.3608L24.4744 34.361L24.4756 34.3611L24.4804 34.3614H24.4812L24.4868 34.3617H24.4878L24.4925 34.362H24.4936L24.4992 34.3623L24.4999 34.3624L24.5047 34.3626L24.5061 34.3627L24.5116 34.3629H24.5117L24.517 34.3632L24.5185 34.3633L24.5234 34.3635H24.5239L24.5294 34.3638H24.5308L24.5353 34.364L24.5364 34.3641L24.5418 34.3643H24.5431L24.5475 34.3645L24.5489 34.3646L24.5543 34.3648H24.555L24.5598 34.365L24.5613 34.3651L24.5661 34.3652L24.5668 34.3653L24.5721 34.3655H24.5737L24.578 34.3657H24.5793L24.5845 34.3659H24.5861L24.5903 34.3661H24.5917L24.597 34.3663H24.5981L24.6026 34.3665H24.6041L24.6095 34.3666H24.61L24.615 34.3668H24.6166L24.6215 34.367H24.622L24.6276 34.3671H24.6288L24.6335 34.3672L24.6345 34.3673L24.6399 34.3674L24.6412 34.3675L24.6457 34.3676H24.647L24.6524 34.3677H24.6533L24.658 34.3678L24.6595 34.3679L24.6646 34.368H24.6651L24.6705 34.3681H24.672L24.6765 34.3682H24.6776L24.683 34.3683H24.6843L24.6888 34.3684H24.6901H24.6956H24.6964L24.7012 34.3685H24.7026L24.7081 34.3686H24.7086H24.7135H24.7152H24.7199H24.7207L24.7261 34.3687H24.7275H24.7321H24.7332L24.7386 34.3688H24.74H24.7443H24.7457H24.7511H24.7522H24.7568H24.7583H24.7637L24.765 34.3685Z" fill="#FFB800"/>
<path d="M24.7642 32.8381C26.8631 32.8381 28.5646 31.1253 28.5646 29.0124C28.5646 26.8995 26.8631 25.1866 24.7642 25.1866C22.6654 25.1866 20.9639 26.8995 20.9639 29.0124C20.9639 31.1253 22.6654 32.8381 24.7642 32.8381Z" fill="#FFE152"/>
<path d="M20.9641 29.8001C20.544 29.8001 20.2041 29.48 20.2041 29.0574V29.0126C20.2068 26.4784 22.247 24.4246 24.7644 24.4218C25.7919 24.4181 26.79 24.7672 27.5938 25.4115C27.923 25.674 27.9785 26.1554 27.7178 26.4867C27.4571 26.8181 26.9789 26.874 26.6497 26.6115C26.1142 26.182 25.4491 25.9493 24.7644 25.9521C23.0861 25.9539 21.726 27.3231 21.7242 29.0126C21.7242 29.4351 21.3843 29.8001 20.9641 29.8001Z" fill="#FFEE9D"/>
<path d="M25.9049 28.2475H23.6247C23.4148 28.2475 23.2447 28.0762 23.2447 27.8649C23.2447 27.6536 23.4148 27.4823 23.6247 27.4823H26.2849C26.7047 27.4821 27.0448 27.1393 27.0445 26.7167C27.0442 26.2945 26.7043 25.9523 26.2849 25.9521H23.6247C22.5753 25.9521 21.7246 26.8085 21.7246 27.8649C21.7246 28.9213 22.5753 29.7777 23.6247 29.7777H25.9049C26.1148 29.7777 26.2849 29.949 26.2849 30.1603C26.2849 30.3715 26.1148 30.5428 25.9049 30.5428H23.2447C22.8249 30.5428 22.4846 30.8854 22.4846 31.308C22.4846 31.7305 22.8249 32.0731 23.2447 32.0731H25.9049C26.9543 32.0731 27.805 31.2167 27.805 30.1603C27.805 29.1039 26.9543 28.2475 25.9049 28.2475Z" fill="#FFF7D2"/>
<path d="M12.1919 36.6643H38.3001C38.5721 36.6643 38.7927 36.8901 38.7927 37.1684V39.6887H11.6992V37.1684C11.6992 36.8901 11.9198 36.6643 12.1919 36.6643Z" fill="#005EEE"/>
<path d="M38.7927 19.5262H11.2065C10.9345 19.5262 10.7139 19.3004 10.7139 19.0221V16.3691C10.7136 16.1487 10.8534 15.9538 11.0587 15.8877L24.5617 11.6002C24.847 11.5094 25.1522 11.5094 25.4375 11.6002L38.9404 15.8877C39.1458 15.9538 39.2855 16.1487 39.2853 16.3691V19.0221C39.2853 19.3004 39.0647 19.5262 38.7927 19.5262Z" fill="#079CFF"/>
<path d="M13.1768 17.1598L24.8517 13.6184C24.9467 13.5883 25.0483 13.5883 25.1434 13.6184L37.0443 17.1598H13.1768Z" fill="#0784FF"/>
<path d="M11.2065 38.6805H38.7927C39.0647 38.6805 39.2853 38.9062 39.2853 39.1846V40.1928C39.2853 40.4712 39.0647 40.6969 38.7927 40.6969H11.2065C10.9345 40.6969 10.7139 40.4712 10.7139 40.1928V39.1846C10.7139 38.9062 10.9345 38.6805 11.2065 38.6805Z" fill="#079CFF"/>
<path opacity="0.24" d="M31.4693 17.1598H36.8878C37.2446 17.1598 37.5339 17.4558 37.5339 17.8209C37.5339 18.186 37.2446 18.482 36.8878 18.482H31.4693C31.1125 18.482 30.8232 18.186 30.8232 17.8209C30.8232 17.4558 31.1124 17.1598 31.4693 17.1598Z" fill="#DEDEDF"/>
</svg>
