<svg width="316" height="238" viewBox="0 0 316 238" fill="none" xmlns="http://www.w3.org/2000/svg">
<rect width="316" height="237.613" rx="50" fill="#23273C"/>
<path d="M231.388 187.206H229.022C227.501 187.206 226.318 188.389 226.318 189.91C226.318 191.431 227.501 192.613 229.022 192.613H231.388C232.909 192.613 234.092 191.431 234.092 189.91C234.092 188.389 232.909 187.206 231.388 187.206ZM221.418 187.206H218.714V115.386C218.714 113.865 217.531 112.682 216.01 112.682C214.489 112.682 213.306 113.865 213.306 115.386V187.206H197.252V79.0531H213.306V97.8109C213.306 99.3318 214.489 100.515 216.01 100.515C217.531 100.515 218.714 99.3318 218.714 97.8109V76.3493C218.714 74.8284 217.531 73.6455 216.01 73.6455H194.548C193.028 73.6455 191.845 74.8284 191.845 76.3493V187.206H187.282V100.684C187.282 99.1628 186.099 97.9799 184.578 97.9799H162.948C161.427 97.9799 160.244 99.1628 160.244 100.684V187.206H155.681V125.187C155.681 123.666 154.498 122.483 152.977 122.483H131.516C129.995 122.483 128.812 123.666 128.812 125.187V187.206H124.249V146.987C124.249 145.466 123.066 144.283 121.545 144.283H100.084C98.563 144.283 97.38 145.466 97.38 146.987V187.206H84.7059C83.185 187.206 82.0021 188.389 82.0021 189.91C82.0021 191.431 83.185 192.613 84.7059 192.613H221.418C222.939 192.613 224.121 191.431 224.121 189.91C224.121 188.389 222.939 187.206 221.418 187.206ZM165.651 103.387H181.705V187.206H165.651V103.387ZM134.22 127.891H150.273V187.206H134.22V127.891ZM102.788 149.69H118.842V187.206H102.788V149.69Z" fill="#FCFCFD"/>
<path d="M216.012 103.05C214.492 103.05 213.309 104.233 213.309 105.754V108.289C213.309 109.809 214.492 110.992 216.012 110.992C217.533 110.992 218.716 109.809 218.716 108.289V105.754C218.716 104.233 217.533 103.05 216.012 103.05ZM107.184 124.173C107.691 124.173 108.198 124.004 108.536 123.835C130.504 110.823 160.077 90.0378 180.694 63.1686L185.088 66.2104C186.777 67.3933 188.974 66.2104 189.143 64.3515L190.495 47.7906C190.664 45.7628 188.636 44.4109 186.777 45.2558L171.737 52.3533C169.879 53.1983 169.71 55.7331 171.399 56.747L176.131 60.1268C155.853 86.32 127.124 106.43 105.663 119.273C104.311 120.118 103.973 121.639 104.649 122.991C105.325 123.666 106.339 124.173 107.184 124.173ZM94.0027 131.609C94.5097 131.609 94.8476 131.44 95.3546 131.271C97.3825 130.257 99.7483 128.905 102.114 127.553C103.466 126.877 103.804 125.187 103.128 123.835C102.452 122.484 100.762 122.146 99.4103 122.822C96.8755 124.173 94.6787 125.525 92.6508 126.539C91.2989 127.215 90.7919 128.905 91.4679 130.257C92.1438 131.102 92.9888 131.609 94.0027 131.609ZM84.7083 136.341C85.0463 136.341 85.5533 136.341 85.8913 136.172C85.8913 136.172 86.5672 135.834 87.9191 135.158C89.271 134.482 89.778 132.792 89.102 131.44C88.4261 130.088 86.7362 129.581 85.3843 130.257C84.2014 130.933 83.5254 131.102 83.5254 131.102C82.1735 131.778 81.4976 133.299 82.1735 134.651C82.6805 135.665 83.6944 136.341 84.7083 136.341Z" fill="#FCFCFD"/>
</svg>
