<svg width="36" height="36" viewBox="0 0 36 36" fill="none" xmlns="http://www.w3.org/2000/svg">
<path fill-rule="evenodd" clip-rule="evenodd" d="M18 36C27.9411 36 36 27.9411 36 18C36 8.05887 27.9411 0 18 0C8.05887 0 0 8.05887 0 18C0 27.9411 8.05887 36 18 36Z" fill="#FCFCFD"/>
<path d="M13.4105 26.6157H19.0354C19.4515 26.6157 19.8505 26.4504 20.1447 26.1562L24.7161 21.5847C25.0103 21.2905 25.1756 20.8915 25.1756 20.4755V10.9288C25.1756 10.0625 24.4733 9.36011 23.6069 9.36011H13.4105C12.5441 9.36011 11.8418 10.0625 11.8418 10.9288V25.047C11.8418 25.9133 12.5441 26.6157 13.4105 26.6157Z" fill="#FF3378"/>
<path opacity="0.24" d="M19.6852 21.9095C20.1184 21.9095 20.4696 22.2607 20.4696 22.6939V25.047C20.4696 25.4802 20.1184 25.8314 19.6852 25.8314C19.252 25.8314 18.9009 25.4802 18.9009 25.047V22.6939C18.9009 22.2607 19.252 21.9095 19.6852 21.9095Z" fill="#FCFCFD"/>
<path opacity="0.24" d="M13.8028 10.9287H16.1557C16.3723 10.9287 16.5479 11.1043 16.5479 11.3209C16.5479 11.5375 16.3723 11.7131 16.1557 11.7131H13.8028C13.5862 11.7131 13.4106 11.5375 13.4106 11.3209C13.4106 11.1043 13.5862 10.9287 13.8028 10.9287Z" fill="#DEDEDF"/>
<path opacity="0.24" d="M13.8028 14.8506H16.1557C16.3723 14.8506 16.5479 15.0261 16.5479 15.2427C16.5479 15.4593 16.3723 15.6349 16.1557 15.6349H13.8028C13.5862 15.6349 13.4106 15.4593 13.4106 15.2427C13.4106 15.0261 13.5862 14.8506 13.8028 14.8506Z" fill="#DEDEDF"/>
<path d="M17.7242 10.9287H23.2147C23.4313 10.9287 23.6069 11.1043 23.6069 11.3209C23.6069 11.5375 23.4313 11.7131 23.2147 11.7131H17.7242C17.5076 11.7131 17.332 11.5375 17.332 11.3209C17.332 11.1043 17.5076 10.9287 17.7242 10.9287Z" fill="#E9E2F5"/>
<path d="M17.7242 14.8506H20.8617C21.0783 14.8506 21.2539 15.0261 21.2539 15.2427C21.2539 15.4593 21.0783 15.6349 20.8617 15.6349H17.7242C17.5076 15.6349 17.332 15.4593 17.332 15.2427C17.332 15.0261 17.5076 14.8506 17.7242 14.8506Z" fill="#E9E2F5"/>
<path d="M17.7242 16.4189H19.2929C19.5095 16.4189 19.6851 16.5945 19.6851 16.8111C19.6851 17.0277 19.5095 17.2033 19.2929 17.2033H17.7242C17.5076 17.2033 17.332 17.0277 17.332 16.8111C17.332 16.5945 17.5076 16.4189 17.7242 16.4189Z" fill="#E9E2F5"/>
<path opacity="0.24" d="M13.8028 18.772H16.1557C16.3723 18.772 16.5479 18.9476 16.5479 19.1642C16.5479 19.3808 16.3723 19.5564 16.1557 19.5564H13.8028C13.5862 19.5564 13.4106 19.3808 13.4106 19.1642C13.4106 18.9476 13.5862 18.772 13.8028 18.772Z" fill="#DEDEDF"/>
<path d="M17.7242 18.772H20.0771C20.2937 18.772 20.4693 18.9476 20.4693 19.1642C20.4693 19.3808 20.2937 19.5564 20.0771 19.5564H17.7242C17.5076 19.5564 17.332 19.3808 17.332 19.1642C17.332 18.9476 17.5076 18.772 17.7242 18.772Z" fill="#E9E2F5"/>
<path d="M21.6461 18.772H23.2147C23.4313 18.772 23.6069 18.9476 23.6069 19.1642C23.6069 19.3808 23.4313 19.5564 23.2147 19.5564H21.6461C21.4295 19.5564 21.2539 19.3808 21.2539 19.1642C21.2539 18.9476 21.4295 18.772 21.6461 18.772Z" fill="#E9E2F5"/>
<path opacity="0.24" d="M13.8028 21.125H16.1557C16.3723 21.125 16.5479 21.3006 16.5479 21.5172C16.5479 21.7338 16.3723 21.9094 16.1557 21.9094H13.8028C13.5862 21.9094 13.4106 21.7338 13.4106 21.5172C13.4106 21.3006 13.5862 21.125 13.8028 21.125Z" fill="#DEDEDF"/>
<path d="M17.7242 21.125H21.6459C21.8625 21.125 22.0381 21.3006 22.0381 21.5172C22.0381 21.7338 21.8625 21.9094 21.6459 21.9094H17.7242C17.5076 21.9094 17.332 21.7338 17.332 21.5172C17.332 21.3006 17.5076 21.125 17.7242 21.125Z" fill="#E9E2F5"/>
<path d="M17.7242 12.4976H18.5085C18.7251 12.4976 18.9007 12.6732 18.9007 12.8898C18.9007 13.1064 18.7251 13.282 18.5085 13.282H17.7242C17.5076 13.282 17.332 13.1064 17.332 12.8898C17.332 12.6732 17.5076 12.4976 17.7242 12.4976Z" fill="#E9E2F5"/>
<path d="M17.7242 22.6938H18.5085C18.7251 22.6938 18.9007 22.8694 18.9007 23.086C18.9007 23.3026 18.7251 23.4782 18.5085 23.4782H17.7242C17.5076 23.4782 17.332 23.3026 17.332 23.086C17.332 22.8694 17.5076 22.6938 17.7242 22.6938Z" fill="#E9E2F5"/>
<path d="M20.0772 12.4976H23.2147C23.4313 12.4976 23.6069 12.6732 23.6069 12.8898C23.6069 13.1064 23.4313 13.282 23.2147 13.282H20.0772C19.8607 13.282 19.6851 13.1064 19.6851 12.8898C19.6851 12.6732 19.8607 12.4976 20.0772 12.4976Z" fill="#E9E2F5"/>
<path d="M21.2538 21.1252H24.0729C24.3251 21.1252 24.5296 21.3297 24.5296 21.5819C24.5296 21.703 24.4814 21.8192 24.3958 21.9048L20.4647 25.8359C20.2864 26.0142 19.9972 26.0142 19.8188 25.8359C19.7331 25.7502 19.6851 25.6341 19.6851 25.5129V22.6938C19.6851 21.8275 20.3874 21.1252 21.2538 21.1252Z" fill="#D02E65"/>
<g filter="url(#filter0_d_508_5667)">
<path d="M11.5199 18.72C13.5081 18.72 15.1199 17.1082 15.1199 15.12C15.1199 13.1318 13.5081 11.52 11.5199 11.52C9.5317 11.52 7.91992 13.1318 7.91992 15.12C7.91992 17.1082 9.5317 18.72 11.5199 18.72Z" fill="#DEDEDF"/>
</g>
<path fill-rule="evenodd" clip-rule="evenodd" d="M9.89966 15.3H12.4502L11.8058 15.9462L12.0596 16.2L13.1396 15.12L12.0596 14.04L11.8058 14.2938L12.4502 14.94H9.89966V15.3Z" fill="#FCFCFD"/>
<defs>
<filter id="filter0_d_508_5667" x="4.91992" y="9.52002" width="13.2" height="13.2" filterUnits="userSpaceOnUse" color-interpolation-filters="sRGB">
<feFlood flood-opacity="0" result="BackgroundImageFix"/>
<feColorMatrix in="SourceAlpha" type="matrix" values="0 0 0 0 0 0 0 0 0 0 0 0 0 0 0 0 0 0 127 0" result="hardAlpha"/>
<feOffset dy="1"/>
<feGaussianBlur stdDeviation="1.5"/>
<feColorMatrix type="matrix" values="0 0 0 0 0 0 0 0 0 0 0 0 0 0 0 0 0 0 0.1 0"/>
<feBlend mode="normal" in2="BackgroundImageFix" result="effect1_dropShadow_508_5667"/>
<feBlend mode="normal" in="SourceGraphic" in2="effect1_dropShadow_508_5667" result="shape"/>
</filter>
</defs>
</svg>
