<svg width="310" height="249" viewBox="0 0 310 249" fill="none" xmlns="http://www.w3.org/2000/svg">
<rect width="310" height="248.004" rx="50" fill="#23273C"/>
<path d="M223.755 153.983C220.42 151.156 216.035 149.942 211.708 150.663L169.719 157.663C169.502 154.037 168.047 150.653 165.461 148.068C162.669 145.28 159.008 143.771 155.007 143.766C128.303 143.845 110.685 143.849 106.793 143.775C104.074 140.746 100.177 138.803 95.8008 138.803H85.9338C83.2106 138.803 81.0004 141.013 81.0004 143.736V193.071C81.0004 195.794 83.2106 198.004 85.9338 198.004H95.8008C100.157 198.004 104.04 196.075 106.753 193.071H155.002C155.348 193.071 155.698 193.036 156.034 192.962L217.258 179.844C224.061 178.384 229 172.276 229 165.315C229.005 160.939 227.09 156.81 223.755 153.983ZM95.8008 188.137H90.8673V148.67H95.8008C98.5191 148.67 100.734 150.885 100.734 153.603V183.204C100.734 185.922 98.5191 188.137 95.8008 188.137ZM215.196 170.194L154.48 183.204H110.601V153.672C116.738 153.721 129.166 153.707 155.032 153.633C155.037 153.633 155.042 153.633 155.047 153.633C156.349 153.633 157.568 154.136 158.49 155.053C159.423 155.986 159.936 157.224 159.936 158.551C159.936 161.265 157.731 163.47 155.017 163.47H130.335C127.612 163.47 125.402 165.68 125.402 168.403C125.402 171.127 127.612 173.337 130.335 173.337H155.017C159.433 173.337 163.36 171.349 166.073 168.27L213.331 160.391C214.801 160.155 216.237 160.544 217.376 161.506C218.511 162.473 219.138 163.825 219.138 165.315C219.138 167.654 217.48 169.706 215.196 170.194ZM145.136 138.803H164.869C189.349 138.803 209.271 118.881 209.271 94.4013C209.271 69.9214 189.349 50 164.869 50H145.136C120.656 50 100.734 69.9214 100.734 94.4013C100.734 118.881 120.656 138.803 145.136 138.803ZM199.404 94.4013C199.404 110.06 188.92 123.292 174.613 127.515C183.745 119.375 189.537 107.564 189.537 94.4013C189.537 81.2388 183.745 69.428 174.613 61.2878C188.92 65.5108 199.404 78.7424 199.404 94.4013ZM145.136 59.867C164.179 59.867 179.67 75.3581 179.67 94.4013C179.67 113.444 164.179 128.936 145.136 128.936C126.092 128.936 110.601 113.444 110.601 94.4013C110.601 75.3581 126.092 59.867 145.136 59.867Z" fill="#FCFCFD"/>
<path d="M130 101.515L128.071 113.336C127.765 115.201 128.555 117.076 130.099 118.166C131.648 119.251 133.681 119.365 135.328 118.452L145.136 113.03L154.944 118.452C155.694 118.861 156.513 119.069 157.332 119.069C158.328 119.069 159.325 118.763 160.173 118.166C161.717 117.08 162.507 115.201 162.201 113.336L160.272 101.515L168.397 93.1876C169.69 91.8655 170.134 89.9315 169.542 88.1752C168.95 86.4189 167.435 85.1411 165.61 84.8649L154.579 83.1776L149.601 72.5706C148.792 70.839 147.05 69.7339 145.136 69.7339C143.222 69.7339 141.48 70.839 140.671 72.5706L135.693 83.1776L124.657 84.8649C122.832 85.1461 121.312 86.4238 120.725 88.1752C120.138 89.9266 120.577 91.8655 121.87 93.1876L130 101.515ZM139.783 92.5364C141.411 92.2848 142.807 91.2438 143.503 89.7539L145.136 86.2808L146.769 89.7589C147.47 91.2488 148.861 92.2897 150.489 92.5413L154.633 93.1728L151.471 96.4141C150.375 97.534 149.882 99.1078 150.134 100.652L150.829 104.905L147.524 103.079C146.784 102.67 145.96 102.463 145.136 102.463C144.312 102.463 143.493 102.67 142.748 103.079L139.443 104.905L140.138 100.652C140.39 99.1078 139.897 97.534 138.801 96.4141L135.639 93.1679L139.783 92.5364Z" fill="#FCFCFD"/>
</svg>
