<svg width="309" height="246" viewBox="0 0 309 246" fill="none" xmlns="http://www.w3.org/2000/svg">
<rect width="309" height="245.551" rx="50" fill="#23273C"/>
<path d="M170.169 84.636C170.169 80.536 167.586 77.83 162.543 76.272L161.231 75.862V67.006C163.24 67.744 164.757 69.343 165.536 71.598L170.005 69.548C168.734 66.022 165.536 63.152 161.231 62.25V58.15H157.582V61.963C151.719 62.25 147.783 65.735 147.783 70.737C147.783 74.673 150.243 77.707 155.286 79.224L157.582 79.921V88.777C154.794 88.203 152.416 86.194 151.227 83.037L146.799 85.046C148.193 89.474 152.334 92.795 157.582 93.41V97.1H161.231V93.369C166.643 92.754 170.169 89.392 170.169 84.636ZM156.762 74.509C154.302 73.771 152.99 72.377 152.99 70.491C152.99 68.359 154.794 66.76 157.582 66.555V74.755L156.762 74.509ZM161.231 88.736V81.069H161.272C163.691 81.807 164.962 82.914 164.962 85.005C164.962 86.809 163.568 88.244 161.231 88.736Z" fill="#FCFCFD"/>
<path d="M159.044 50.5625C143.828 50.5625 131.444 62.9557 131.444 78.1719C131.444 82.8798 132.64 87.3052 134.728 91.188C131.652 89.0577 128.101 87.6211 124.291 87.106C116.609 86.0676 109.069 89.042 103.751 94.667C103.313 94.8122 102.929 95.0863 102.649 95.4534C102.369 95.8206 102.206 96.2637 102.182 96.7247C102.158 97.1858 102.274 97.6434 102.514 98.0377C102.754 98.4319 103.108 98.7445 103.529 98.9346C103.586 98.9618 103.645 98.9865 103.705 99.0088C107.285 100.268 110.353 102.544 112.639 105.475C106.794 110.15 102.142 115.734 99.1312 121.97L99.1405 121.915L99.4652 121.265H97.4149C88.5608 121.265 81.3558 128.46 81.3558 137.315V146.49C81.3558 155.345 88.5608 162.54 97.4149 162.54H102.471L102.072 161.39C102.139 161.577 102.229 161.755 102.341 161.918C106.552 168.129 112.461 173.422 119.514 177.56V194.231C119.499 195.507 120.529 196.55 121.805 196.551H140.146C141.415 196.555 142.446 195.528 142.447 194.259V185.594C153.182 187.405 164.205 186.764 174.547 183.841V194.25C174.548 195.515 175.573 196.54 176.838 196.542H195.189C196.454 196.54 197.479 195.515 197.48 194.25V172.226C212.183 160.029 217.502 142.494 212.157 126.553C218.73 122.084 220.737 116.675 220.989 111.774C224.427 108.45 227.301 103.344 227.641 93.999C227.657 93.6818 227.61 93.3645 227.501 93.066C227.392 92.7675 227.225 92.4938 227.009 92.2611C226.792 92.0284 226.532 91.8415 226.242 91.7113C225.952 91.5812 225.639 91.5105 225.322 91.5034C225.01 91.4973 224.7 91.5527 224.409 91.6664C224.119 91.7801 223.853 91.9499 223.629 92.1662C223.404 92.3824 223.224 92.6408 223.099 92.9267C222.974 93.2125 222.906 93.5201 222.9 93.832C222.708 99.1074 221.59 102.404 220.358 105.058C219.269 103.033 217.759 101.343 215.516 100.966C214.075 100.724 212.493 101.095 211.211 101.987C209.928 102.877 208.903 104.208 208.075 105.93C208.044 105.999 208.016 106.071 207.992 106.143C206.928 109.063 207.528 112.103 209.411 113.927C211.104 115.567 213.663 115.802 216.128 115.291C215.15 117.487 213.353 119.808 210.348 122.017C209.106 119.408 207.585 116.858 205.728 114.409C199.428 106.103 190.395 99.8832 180.067 96.0122C184.164 91.1956 186.654 84.9729 186.654 78.1719C186.654 62.9557 174.261 50.5625 159.044 50.5625ZM191.357 54.0879V58.5967H186.858V63.3467H191.357V67.8462H196.107V63.3467H200.616V58.5967H196.107V54.0879H191.357ZM159.044 55.3125C171.693 55.3125 181.904 65.5231 181.904 78.1719C181.904 90.8211 171.693 101.022 159.044 101.022C146.395 101.022 136.194 90.8211 136.194 78.1719C136.194 65.5231 146.395 55.3125 159.044 55.3125ZM120.349 58.6709C116.576 58.6709 113.465 61.7818 113.465 65.5547C113.465 69.3271 116.576 72.4385 120.349 72.4385C124.121 72.4385 127.223 69.3271 127.223 65.5547C127.223 61.7818 124.121 58.6709 120.349 58.6709ZM120.349 63.2632C121.642 63.2632 122.64 64.2608 122.64 65.5547C122.64 66.8481 121.642 67.8462 120.349 67.8462C119.055 67.8462 118.057 66.8481 118.057 65.5547C118.057 64.2608 119.055 63.2632 120.349 63.2632ZM121.573 91.4941C122.268 91.5006 122.974 91.5566 123.679 91.6519C130.218 92.5358 135.885 96.6934 138.755 102.738C138.874 103.026 139.05 103.286 139.273 103.503C139.496 103.72 139.76 103.89 140.05 104.001C140.341 104.113 140.651 104.164 140.962 104.153C141.272 104.141 141.578 104.066 141.859 103.932C142.139 103.799 142.39 103.609 142.596 103.376C142.801 103.142 142.957 102.869 143.054 102.574C143.151 102.278 143.186 101.966 143.158 101.656C143.131 101.346 143.04 101.045 142.892 100.771C142.816 100.61 142.712 100.466 142.633 100.308C147.227 103.723 152.895 105.772 159.044 105.772C165.619 105.772 171.663 103.446 176.411 99.5933C186.884 103.117 195.987 109.159 202.073 117.183C214.938 134.148 211.678 155.378 193.862 169.489C193.683 169.632 193.527 169.801 193.398 169.99L193.296 170.129C193.035 170.512 192.896 170.964 192.897 171.428V191.949H179.139V181.15C179.139 180.824 179.07 180.501 178.935 180.204L178.898 180.139C178.415 179.069 177.201 178.536 176.087 178.905C165.004 182.565 152.664 183.276 141.009 180.918C140.349 180.785 139.664 180.947 139.135 181.364L138.727 181.688C138.176 182.123 137.855 182.787 137.855 183.488V191.949H124.097V176.465C124.098 175.77 123.784 175.111 123.243 174.675L122.686 174.239C122.593 174.163 122.494 174.095 122.39 174.035C115.662 170.199 110.183 165.219 106.284 159.534H106.275C105.953 158.611 105.082 157.992 104.104 157.994H97.4149C92.8185 157.994 88.9356 155.351 87.0985 151.5H94.3163V146.75H85.9667C85.9652 146.674 85.9481 146.604 85.9481 146.527V144.292H90.3734V139.708H85.9481V137.352C85.9481 130.96 91.0225 125.885 97.4149 125.885H100.885C101.757 125.888 102.555 125.395 102.944 124.614L103.25 123.993H103.26C105.866 118.592 109.924 113.679 115.06 109.474C115.523 110.49 115.929 111.545 116.22 112.646C116.291 112.944 116.421 113.224 116.602 113.471C116.782 113.717 117.011 113.925 117.273 114.082C117.535 114.239 117.826 114.342 118.129 114.385C118.432 114.428 118.74 114.41 119.036 114.332C119.331 114.254 119.609 114.118 119.851 113.931C120.093 113.745 120.296 113.512 120.446 113.246C120.597 112.98 120.693 112.686 120.729 112.383C120.765 112.079 120.74 111.771 120.655 111.478C120.3 110.138 119.793 108.878 119.207 107.674C119.204 107.666 119.193 107.663 119.189 107.655C117.426 104.042 114.676 101.09 111.396 98.749C113.493 98.6714 116.604 97.9229 117.751 98.4243C120.029 99.4171 121.248 101.32 122.185 104.872C122.256 105.169 122.386 105.45 122.567 105.696C122.748 105.943 122.976 106.151 123.238 106.308C123.501 106.465 123.792 106.568 124.094 106.611C124.397 106.654 124.705 106.636 125.001 106.558C125.297 106.48 125.574 106.344 125.816 106.157C126.058 105.97 126.261 105.737 126.412 105.471C126.562 105.205 126.659 104.912 126.694 104.608C126.73 104.305 126.705 103.997 126.62 103.703C125.507 99.4861 123.415 95.8942 119.578 94.2217C118 93.5336 116.172 93.2445 114.161 93.1826C116.502 92.142 118.978 91.4699 121.573 91.4941ZM112.667 105.521C113.118 106.102 113.543 106.7 113.929 107.331C113.544 106.702 113.117 106.102 112.667 105.521ZM214.727 105.651C215.191 105.727 216.246 106.499 216.814 108.221C216.938 108.596 216.642 109.269 216.712 109.706C216.3 109.957 215.834 110.789 215.469 110.902C214.134 111.316 213.205 110.988 212.714 110.513C212.238 110.052 211.963 109.319 212.463 107.85C212.999 106.807 213.545 106.144 213.92 105.883C214.321 105.603 214.495 105.613 214.727 105.651ZM113.984 107.433C114.37 108.073 114.718 108.732 115.033 109.418C114.718 108.732 114.369 108.071 113.984 107.433ZM140.805 108.75V113.5H177.497V108.75H140.805ZM122.64 121.126C118.806 121.126 115.599 124.343 115.599 128.177C115.599 132.01 118.806 135.218 122.64 135.218C126.474 135.218 129.681 132.01 129.682 128.177C129.681 124.343 126.474 121.126 122.64 121.126ZM122.64 125.718C123.94 125.718 125.098 126.876 125.099 128.177C125.098 129.477 123.94 130.626 122.64 130.626C121.34 130.626 120.182 129.477 120.182 128.177C120.182 126.876 121.34 125.718 122.64 125.718ZM197.239 172.485L197.183 172.578L196.71 173.088C196.934 172.913 197.02 172.665 197.239 172.485Z" fill="#FCFCFD"/>
</svg>
