<svg width="16" height="16" viewBox="0 0 16 16" fill="none" xmlns="http://www.w3.org/2000/svg">
<path fill-rule="evenodd" clip-rule="evenodd" d="M12.9116 11.3622H12.0955L11.8063 11.0833C12.8186 9.90575 13.428 8.37702 13.428 6.71401C13.428 3.00581 10.4222 0 6.71401 0C3.00581 0 0 3.00581 0 6.71401C0 10.4222 3.00581 13.428 6.71401 13.428C8.37702 13.428 9.90575 12.8186 11.0833 11.8063L11.3622 12.0955V12.9116L14.4609 16L16 14.4609L12.9116 11.3622ZM6.71401 11.3622C4.14203 11.3622 2.06585 9.28599 2.06585 6.71401C2.06585 4.14203 4.14203 2.06585 6.71401 2.06585C9.28599 2.06585 11.3622 4.14203 11.3622 6.71401C11.3622 9.28599 9.28599 11.3622 6.71401 11.3622Z" fill="#1D2025"/>
</svg>
