<svg width="36" height="36" viewBox="0 0 36 36" fill="none" xmlns="http://www.w3.org/2000/svg">
<path fill-rule="evenodd" clip-rule="evenodd" d="M18 36C27.9411 36 36 27.9411 36 18C36 8.05887 27.9411 0 18 0C8.05887 0 0 8.05887 0 18C0 27.9411 8.05887 36 18 36Z" fill="#FCFCFD"/>
<path fill-rule="evenodd" clip-rule="evenodd" d="M14.621 23.9328C14.4282 24.0371 14.2121 24.0918 13.9925 24.0918C13.2677 24.0918 12.6801 23.5089 12.6801 22.7898V13.9555C12.6801 13.7376 12.7352 13.5233 12.8403 13.332C13.1874 12.7007 13.9847 12.4681 14.621 12.8125L22.7023 17.1855C23.124 17.4136 23.3863 17.8521 23.3863 18.3285V18.4167C23.3863 18.8932 23.124 19.3316 22.7023 19.5598L14.621 23.9328ZM21.4565 18.3727L14.3272 14.5148V22.2305L21.4565 18.3727Z" fill="#798FA5"/>
<path d="M22.3198 14.4C20.3316 14.4 18.7198 16.0118 18.7198 18C18.7198 19.9882 20.3316 21.6 22.3198 21.6C24.308 21.6 25.9198 19.9882 25.9198 18C25.9198 16.0118 24.308 14.4 22.3198 14.4Z" fill="#FF3378"/>
<path opacity="0.24" d="M22.355 20.88C23.9261 20.88 25.1998 19.4952 25.1998 17.787V17.7826C25.1998 17.7815 25.1998 17.7803 25.1998 17.7792V17.7786V17.7755V17.7748V17.7714V17.7705C25.1998 17.7694 25.1998 17.7682 25.1998 17.7671V17.767C25.1998 17.7658 25.1998 17.7646 25.1998 17.7634V17.7627L25.1997 17.7592V17.7587C25.1997 17.7576 25.1997 17.7566 25.1997 17.7556V17.7548C25.1997 17.7536 25.1997 17.7525 25.1997 17.7514V17.7507L25.1996 17.7473V17.7471C25.1996 17.7459 25.1996 17.7447 25.1996 17.7436V17.7428C25.1996 17.7416 25.1996 17.7405 25.1995 17.7393V17.7388V17.7356V17.7349L25.1994 17.7316V17.7307V17.7276V17.7272L25.1993 17.7238V17.7228L25.1992 17.7195V17.719C25.1992 17.718 25.1992 17.7169 25.1991 17.7158V17.7151C25.1991 17.7139 25.1991 17.7127 25.199 17.7116V17.711L25.1989 17.7078V17.7073L25.1988 17.7039V17.703L25.1987 17.6996V17.6992V17.6961L25.1986 17.6952L25.1985 17.6919V17.6911C25.1985 17.6901 25.1984 17.6891 25.1984 17.6881V17.6875L25.1983 17.6841V17.6832L25.1982 17.6798V17.6797C25.1981 17.6786 25.1981 17.6774 25.198 17.6763V17.6754L25.1979 17.672V17.6714L25.1978 17.6683V17.6677C25.1977 17.6666 25.1977 17.6654 25.1976 17.6643V17.6635C25.1975 17.6624 25.1975 17.6614 25.1975 17.6604V17.6598C25.1974 17.6587 25.1974 17.6576 25.1973 17.6565V17.6556L25.1972 17.6523L25.1971 17.6516C25.1971 17.6506 25.1971 17.6496 25.197 17.6486V17.6479L25.1968 17.6446V17.6437L25.1967 17.6406V17.6402C25.1966 17.639 25.1966 17.6379 25.1965 17.6368L25.1964 17.6359C25.1964 17.6348 25.1963 17.6337 25.1963 17.6325V17.6319L25.1961 17.6289V17.6281L25.1959 17.6248V17.624C25.1959 17.623 25.1958 17.622 25.1958 17.621L25.1957 17.6204L25.1955 17.617V17.6161C25.1954 17.615 25.1954 17.6139 25.1953 17.6128V17.6122C25.1952 17.6112 25.1952 17.6102 25.1951 17.6092V17.6084L25.1949 17.6051L25.1948 17.6042C25.1948 17.6033 25.1947 17.6023 25.1947 17.6014L25.1946 17.6006L25.1944 17.5974V17.5963L25.1942 17.5933V17.5924C25.1941 17.5915 25.194 17.5906 25.194 17.5897L25.1939 17.5887L25.1938 17.5854L25.1937 17.5846L25.1935 17.5818V17.5809L25.1933 17.5778L25.1932 17.5767C25.1932 17.5757 25.1931 17.5748 25.193 17.5739V17.5729L25.1928 17.5702L25.1927 17.569L25.1925 17.5659L25.1924 17.5648L25.1923 17.5625L25.1922 17.5613L25.192 17.5583L25.1919 17.5571L25.1917 17.5544L25.1916 17.5534L25.1915 17.5506L25.1914 17.5494L25.1912 17.5463L25.1911 17.5454L25.1909 17.5429L25.1908 17.5417L25.1906 17.5387L25.1905 17.5375L25.1903 17.5352L25.1902 17.5337L25.19 17.5311L25.1899 17.5299L25.1897 17.5268L25.1896 17.5258L25.1894 17.5233V17.5222L25.1891 17.5192L25.189 17.518L25.1888 17.5156L25.1887 17.5146L25.1885 17.5115L25.1884 17.5104L25.1882 17.5073L25.1881 17.5063L25.1879 17.5039L25.1878 17.5026L25.1875 17.4996L25.1874 17.4985L25.1872 17.4962L25.1871 17.4951L25.1869 17.492L25.1868 17.4909L25.1865 17.4881L25.1864 17.4869L25.1862 17.4845L25.1861 17.4832L25.1858 17.4803L25.1857 17.4791L25.1855 17.4768L25.1854 17.4756L25.1851 17.4727L25.185 17.4714L25.1848 17.4687L25.1847 17.4677C25.1846 17.4668 25.1845 17.4659 25.1844 17.465L25.1843 17.4638L25.184 17.4608L25.1839 17.4597L25.1837 17.4574L25.1836 17.4562L25.1833 17.4533L25.1831 17.452L25.1829 17.4496L25.1828 17.4482L25.1825 17.4457L25.1824 17.4443L25.1821 17.4415V17.4402L25.1819 17.4382L25.1818 17.4368L25.1815 17.4339L25.1813 17.4326L25.1811 17.4304L25.1809 17.4288L25.1807 17.4264L25.1805 17.4249L25.1803 17.4224L25.1801 17.4208L25.1799 17.4188L25.1797 17.4174L25.1794 17.4146L25.1792 17.4131L25.1791 17.4113L25.1788 17.4091L25.1786 17.4071L25.1784 17.4055L25.1782 17.4034L25.1779 17.4014C25.1779 17.4008 25.1778 17.4001 25.1777 17.3995L25.1776 17.398L25.1772 17.3952L25.1771 17.3939L25.1768 17.3918L25.1767 17.3904L25.1764 17.3877L25.1762 17.3862L25.1759 17.384L25.1757 17.3822L25.1755 17.3803L25.1753 17.3787L25.175 17.376L25.1748 17.3746L25.1745 17.3727L25.1743 17.3711L25.174 17.3685L25.1738 17.367L25.1736 17.3651L25.1733 17.3628L25.1731 17.3611L25.1729 17.3594L25.1726 17.357L25.1724 17.3552L25.1722 17.3535L25.172 17.3519L25.1716 17.3493L25.1714 17.3476L25.1712 17.346L25.1709 17.3435L25.1707 17.3418L25.1705 17.3401L25.1702 17.3381L25.1699 17.3359L25.1697 17.3343L25.1695 17.3325L25.1691 17.3301L25.1689 17.3284L25.1687 17.3269L25.1683 17.3243L25.1681 17.3226L25.1679 17.3209L25.1676 17.3192L25.1673 17.3167L25.1671 17.3151L25.1669 17.3135C25.1667 17.3126 25.1666 17.3118 25.1665 17.3109L25.1663 17.3091L25.166 17.3077L25.1657 17.3051L25.1654 17.3035L25.1652 17.3017L25.1649 17.3002L25.1645 17.2975L25.1643 17.296L25.1641 17.2942L25.1638 17.2924L25.1634 17.2899L25.1633 17.2888C25.1631 17.2877 25.1629 17.2866 25.1628 17.2856L25.1626 17.2845L25.1623 17.2826L25.1621 17.2814L25.1617 17.2784L25.1615 17.277L25.1612 17.2752L25.1609 17.2735L25.1605 17.2709L25.1604 17.2697C25.1602 17.2687 25.1601 17.2676 25.1599 17.2667L25.1597 17.2654L25.1594 17.2635L25.1592 17.2623L25.1588 17.2593L25.1586 17.258L25.1583 17.2561L25.1581 17.2552C25.1579 17.2541 25.1578 17.2529 25.1576 17.2518L25.1574 17.2507L25.1569 17.2478L25.1567 17.2464L25.1564 17.2445L25.1562 17.2433C25.1561 17.2423 25.1559 17.2414 25.1557 17.2404L25.1555 17.2389L25.1552 17.2371L25.155 17.236L25.1545 17.2327L25.1543 17.2318C25.1539 17.2296 25.1536 17.2276 25.1532 17.2254L25.1531 17.2244L25.1525 17.2211L25.1523 17.2201L25.152 17.2181L25.1518 17.2171L25.1513 17.2138L25.1511 17.2128L25.1504 17.2086V17.2085L25.15 17.2066L25.1498 17.2054L25.1493 17.2023L25.1491 17.2011L25.1487 17.1992L25.1486 17.1983L25.148 17.1948L25.1478 17.1939L25.1474 17.1919L25.1473 17.1911L25.1467 17.1876L25.1465 17.1866C25.1463 17.1855 25.1461 17.1843 25.1459 17.1833L25.1457 17.1823L25.1453 17.1803L25.1452 17.1794L25.1445 17.176L25.1443 17.1751L25.144 17.1731L25.1439 17.1725L25.1432 17.1688L25.143 17.1678L25.1424 17.1645L25.1422 17.1634L25.1418 17.1615L25.1416 17.1605L25.141 17.1572L25.1408 17.1562L25.1405 17.1543L25.1403 17.1535L25.1396 17.1499L25.1395 17.149L25.1388 17.1455L25.1386 17.1447L25.1382 17.1427L25.1381 17.1419C25.1379 17.1407 25.1376 17.1394 25.1373 17.1382L25.1372 17.1375L25.1368 17.1355L25.1367 17.1348L25.136 17.1312L25.1358 17.1302L25.1351 17.1268L25.1349 17.1259L25.1345 17.1239L25.1344 17.123L25.1336 17.1195L25.1335 17.1187L25.1331 17.1167L25.1329 17.1159C25.1327 17.1147 25.1324 17.1136 25.1322 17.1124L25.132 17.1115L25.1307 17.1051L25.1305 17.1043C25.1303 17.1032 25.13 17.1019 25.1298 17.1008L25.1296 17.1L25.1292 17.098L25.129 17.0973L25.1283 17.0937L25.1281 17.0929C25.1276 17.0907 25.1272 17.0886 25.1268 17.0865L25.1266 17.0857L25.1258 17.0819L25.1257 17.0814L25.1252 17.0793L25.1251 17.0787C25.1248 17.0773 25.1245 17.0762 25.1243 17.0749L25.1241 17.0742L25.1227 17.0678L25.1225 17.0671C25.1221 17.065 25.1216 17.0628 25.1211 17.0606L25.121 17.0601C25.1207 17.0588 25.1204 17.0575 25.1201 17.0563L25.12 17.0556L25.1186 17.0491L25.1184 17.0485C25.118 17.0464 25.1175 17.0442 25.117 17.042L25.1168 17.0414C25.1165 17.0401 25.1163 17.0389 25.116 17.0376L25.1159 17.0371L25.1144 17.0306L25.1142 17.0299C25.1137 17.0278 25.1132 17.0257 25.1127 17.0236L25.1125 17.0227C25.1123 17.0215 25.112 17.0203 25.1117 17.0191L25.1115 17.0184L25.111 17.0164L25.1109 17.0158C25.1106 17.0146 25.1104 17.0134 25.1101 17.0123L25.1098 17.0112C25.1093 17.0092 25.1089 17.0071 25.1084 17.0051L25.1081 17.0042L25.1073 17.0006L25.1071 16.9999L25.1066 16.9979L25.1064 16.9972C25.1062 16.996 25.1059 16.9948 25.1056 16.9937L25.1054 16.9928C25.1049 16.9907 25.1044 16.9887 25.1038 16.9866L25.1036 16.9857L25.1028 16.9822L25.1026 16.9815L25.1021 16.9795L25.1018 16.9786L25.101 16.9753L25.1008 16.9744L25.0992 16.9682L25.099 16.9673C25.0987 16.9662 25.0984 16.9648 25.0981 16.9637L25.0979 16.9631L25.0974 16.9611L25.0972 16.9604C25.0969 16.9592 25.0966 16.9579 25.0963 16.9568L25.0961 16.956L25.0956 16.954C25.0952 16.9526 25.0949 16.9513 25.0945 16.9498L25.0943 16.9489C25.0938 16.9469 25.0932 16.9447 25.0927 16.9427L25.0925 16.9419L25.0916 16.9385L25.0914 16.9377C25.0912 16.9371 25.091 16.9363 25.0908 16.9356V16.9355C25.0904 16.9341 25.0901 16.9328 25.0897 16.9314L25.0895 16.9307L25.0878 16.9243L25.0877 16.9237L25.0867 16.92L25.0865 16.9194L25.086 16.9173L25.0859 16.917L25.0849 16.9132L25.0846 16.9123L25.083 16.9062L25.0827 16.9052L25.0817 16.9017L25.0816 16.9012L25.081 16.899L25.0809 16.8987C25.0806 16.8974 25.0802 16.8961 25.0798 16.8949L25.0796 16.8941C25.0791 16.892 25.0785 16.89 25.0779 16.8879L25.0777 16.8871C25.0774 16.886 25.077 16.8846 25.0767 16.8835L25.0765 16.8829L25.076 16.8809L25.0758 16.8802L25.0748 16.8768L25.0745 16.8759C25.074 16.8738 25.0734 16.8719 25.0728 16.8698L25.0726 16.8689C25.0723 16.8679 25.0719 16.8666 25.0716 16.8656L25.0714 16.8648L25.0708 16.8628L25.0706 16.8619L25.0696 16.8587L25.0694 16.8578L25.0688 16.8558V16.8556L25.0676 16.8517L25.0673 16.8508L25.0662 16.847V16.8467L25.0656 16.8447L25.0654 16.844C25.065 16.8428 25.0646 16.8415 25.0643 16.8404L25.0641 16.8397C25.0635 16.8377 25.0629 16.8356 25.0623 16.8335L25.0621 16.8328C25.0615 16.8308 25.0608 16.8287 25.0602 16.8266L25.06 16.826C25.0597 16.8248 25.0593 16.8236 25.0589 16.8224L25.0587 16.8218C25.0581 16.8197 25.0575 16.8175 25.0568 16.8154L25.0567 16.8149C25.0561 16.8129 25.0554 16.8107 25.0547 16.8086L25.0546 16.808L25.0535 16.8045L25.0533 16.8038L25.0526 16.8018L25.0525 16.8013L25.0514 16.7976L25.0511 16.7968L25.0505 16.7949L25.0504 16.7946L25.0492 16.7908L25.049 16.7899L25.0479 16.7865L25.0477 16.7858C25.0474 16.7851 25.0473 16.7846 25.047 16.7838L25.0469 16.7833L25.0458 16.7798L25.0455 16.7789L25.0449 16.777L25.0446 16.7761C25.0443 16.7751 25.0439 16.774 25.0436 16.773L25.0433 16.772L25.0423 16.7689L25.042 16.7679L25.0414 16.7661L25.0411 16.7651L25.0401 16.762L25.0398 16.761L25.0392 16.7592L25.0389 16.7583L25.0379 16.7551L25.0375 16.7541L25.0366 16.7512L25.0362 16.75L25.0356 16.7483L25.0353 16.7471C25.035 16.7462 25.0347 16.7453 25.0343 16.7443L25.0339 16.7431L25.0334 16.7414L25.0329 16.74C25.0326 16.7391 25.0323 16.7383 25.0321 16.7374L25.0317 16.7362L25.0309 16.7338L25.0303 16.7322L25.0298 16.7305L25.0294 16.7293L25.0285 16.7266L25.028 16.7253L25.0275 16.7238L25.0269 16.7217L25.0262 16.7199L25.0257 16.7183L25.0252 16.7168L25.0243 16.7144L25.0238 16.7129L25.0234 16.7115L25.0225 16.709L25.022 16.7077L25.0215 16.706L25.0209 16.7045L25.0201 16.7021L25.0197 16.7008L25.0191 16.6991L25.0183 16.6968L25.0178 16.6952L25.0173 16.6938L25.0165 16.6916L25.0159 16.6899L25.0154 16.6885L25.0148 16.6868L25.014 16.6845L25.0135 16.6831L25.013 16.6816C25.0127 16.6807 25.0124 16.68 25.0121 16.6791L25.0116 16.6777L25.0111 16.6762L25.0104 16.6742L25.0097 16.6724L25.0092 16.6709L25.0085 16.6691L25.0078 16.6671L25.0073 16.6655L25.0067 16.664L25.0058 16.6615L25.0054 16.6603L25.0047 16.6585L25.0043 16.6573L25.0034 16.6546L25.003 16.6535L25.0022 16.6514L25.0016 16.6498L25.0009 16.6479L25.0004 16.6465C25.0002 16.6458 24.9998 16.6449 24.9995 16.6441L24.999 16.6427L24.9984 16.641L24.9979 16.6397L24.997 16.6372L24.9965 16.6359L24.9958 16.6339L24.9952 16.6325L24.9945 16.6304L24.994 16.6291L24.993 16.6265L24.9926 16.6254L24.9919 16.6236L24.9915 16.6223L24.9905 16.6197L24.99 16.6185L24.9893 16.6166L24.9887 16.6151L24.9879 16.6129L24.9875 16.6117L24.9865 16.6092L24.9861 16.608L24.9854 16.606L24.9849 16.6049L24.9839 16.6023L24.9835 16.6012L24.9827 16.599L24.9823 16.5982C24.982 16.5973 24.9816 16.5964 24.9813 16.5955L24.9809 16.5944L24.9799 16.5918L24.9795 16.5908L24.9787 16.5887L24.9783 16.5875L24.9772 16.5849L24.9769 16.5839L24.976 16.5816L24.9757 16.5808L24.9746 16.5781L24.9742 16.5771L24.9732 16.5745L24.9729 16.5737L24.9719 16.5712L24.9716 16.5703L24.9704 16.5675L24.9701 16.5667L24.9692 16.5644L24.9689 16.5636L24.9678 16.5608L24.9674 16.5598L24.9664 16.5573L24.9662 16.5566L24.9651 16.554L24.9647 16.5531L24.9636 16.5503L24.9633 16.5496L24.9623 16.5471L24.962 16.5463C24.9616 16.5454 24.9613 16.5445 24.9609 16.5435L24.9605 16.5427L24.9595 16.5401L24.9593 16.5396L24.9582 16.5368L24.9578 16.5359L24.9567 16.5331L24.9563 16.5323L24.9554 16.53L24.955 16.5292C24.9547 16.5283 24.9543 16.5273 24.9539 16.5264L24.9535 16.5255L24.9525 16.523L24.9523 16.5226L24.9511 16.5197L24.9508 16.5189C24.9504 16.5179 24.9499 16.5169 24.9495 16.5159L24.9494 16.5156L24.9482 16.5128L24.948 16.5122L24.9467 16.5093L24.9464 16.5086C24.9461 16.5077 24.9458 16.5069 24.9454 16.5061L24.9452 16.5055C24.9448 16.5045 24.9444 16.5036 24.944 16.5026L24.9436 16.5018L24.9424 16.4989L24.9423 16.4985L24.9411 16.4958L24.9408 16.4951L24.9396 16.4923L24.9393 16.4915L24.9382 16.489L24.938 16.4885L24.9368 16.4856L24.9365 16.4848L24.9352 16.4819L24.9351 16.4816C24.9347 16.4807 24.9343 16.4798 24.9339 16.4789L24.9336 16.4781L24.9323 16.4752L24.9321 16.4747C24.9317 16.4738 24.9313 16.4729 24.9309 16.472L24.9307 16.4715C24.9303 16.4705 24.9299 16.4696 24.9295 16.4686L24.9292 16.468L24.9279 16.4649C24.9274 16.4639 24.927 16.4629 24.9265 16.4618L24.9263 16.4613L24.925 16.4583L24.9248 16.4578L24.9236 16.455L24.9234 16.4546L24.9221 16.4516L24.9218 16.4511C24.9209 16.449 24.92 16.4469 24.9191 16.4449L24.9189 16.4445L24.9161 16.4382L24.916 16.4378L24.9146 16.4347L24.9144 16.4344L24.913 16.4312L24.9116 16.4281L24.9114 16.4277L24.91 16.4246L24.9099 16.4244C24.9095 16.4235 24.909 16.4224 24.9086 16.4215L24.9084 16.4211L24.907 16.4181L24.9068 16.4176C24.9059 16.4156 24.9049 16.4134 24.904 16.4114L24.9038 16.411C24.9028 16.4089 24.9019 16.4068 24.9009 16.4047L24.9008 16.4044C24.9003 16.4034 24.8998 16.4023 24.8993 16.4013L24.8992 16.401C24.8988 16.4 24.8983 16.399 24.8978 16.398L24.8977 16.3978C24.8973 16.3968 24.8968 16.3957 24.8963 16.3947L24.8961 16.3943C24.8952 16.3922 24.8942 16.3901 24.8932 16.388L24.893 16.3877L24.8916 16.3846L24.8915 16.3844C24.891 16.3833 24.8905 16.3823 24.89 16.3812L24.8885 16.378L24.8884 16.3778C24.8874 16.3757 24.8864 16.3736 24.8854 16.3715L24.8852 16.3711L24.8837 16.368V16.3679L24.8822 16.3647L24.8821 16.3646L24.8806 16.3614L24.8805 16.3613C24.8795 16.3591 24.8785 16.3569 24.8774 16.3548V16.3547C24.8124 16.2198 24.7384 16.0902 24.6559 15.9672C24.5634 15.8291 24.3854 15.7988 24.2584 15.8993C24.1315 15.9999 24.1035 16.1934 24.1961 16.3315C24.9352 17.437 24.7101 18.9847 23.6933 19.7883C23.3044 20.0957 22.836 20.2612 22.3552 20.2613C21.9864 20.2627 21.6229 20.1655 21.2967 19.9781C21.1576 19.8986 20.9856 19.9567 20.9125 20.1079C20.8397 20.2586 20.8925 20.445 21.0308 20.525C21.0932 20.5607 21.157 20.594 21.222 20.6248H21.2221L21.224 20.6257L21.2241 20.6258C21.2267 20.627 21.2292 20.6282 21.2317 20.6294L21.2322 20.6296L21.2338 20.6303L21.2343 20.6306L21.2359 20.6313L21.2362 20.6315C21.2381 20.6323 21.2398 20.6331 21.2416 20.634L21.2421 20.6342L21.2436 20.6349L21.2443 20.6352L21.2457 20.6359L21.2465 20.6363L21.2478 20.6369L21.2485 20.6372C21.2496 20.6377 21.2505 20.6381 21.2516 20.6386L21.252 20.6387L21.2535 20.6395L21.2541 20.6397L21.2556 20.6404L21.2563 20.6407L21.2578 20.6414L21.2583 20.6416L21.2634 20.6439L21.2641 20.6443L21.2655 20.6449L21.2662 20.6452L21.2676 20.6459L21.2684 20.6462L21.2699 20.6468L21.2705 20.6471C21.2717 20.6476 21.2727 20.6481 21.2738 20.6486L21.274 20.6487L21.2754 20.6493L21.2762 20.6496L21.2776 20.6503L21.2784 20.6506L21.2797 20.6512L21.2807 20.6517L21.282 20.6522L21.2825 20.6524L21.2855 20.6538L21.2861 20.6541L21.2874 20.6546L21.2883 20.655L21.2897 20.6557L21.2905 20.656L21.2918 20.6566L21.2928 20.657L21.2942 20.6577L21.2961 20.6585L21.2972 20.659L21.2983 20.6595L21.2995 20.66L21.3005 20.6604L21.3017 20.661L21.3028 20.6614L21.3039 20.6619L21.3053 20.6626L21.3066 20.6631L21.3083 20.6638L21.3093 20.6642L21.3106 20.6648L21.3115 20.6652L21.3129 20.6658L21.3138 20.6662L21.3152 20.6668L21.3161 20.6672L21.3179 20.6679L21.3191 20.6685L21.3205 20.669L21.3215 20.6695L21.3227 20.67L21.3238 20.6704L21.325 20.671L21.3261 20.6714L21.3275 20.672L21.3283 20.6724L21.3305 20.6733L21.3314 20.6737L21.3327 20.6742L21.3338 20.6747L21.335 20.6752L21.336 20.6756L21.3373 20.6761L21.3383 20.6766L21.3399 20.6772L21.3411 20.6777L21.3427 20.6784L21.3436 20.6787L21.3451 20.6794L21.3459 20.6797L21.3474 20.6803L21.3483 20.6807L21.3499 20.6813L21.3505 20.6816L21.3528 20.6825L21.3534 20.6828L21.3551 20.6835L21.3559 20.6838L21.3574 20.6844L21.3582 20.6848L21.3599 20.6854L21.3605 20.6857L21.3627 20.6866H21.3628L21.3652 20.6875L21.3657 20.6878L21.3675 20.6885L21.3681 20.6887L21.37 20.6895L21.3704 20.6897L21.3726 20.6905L21.3728 20.6906L21.3776 20.6925L21.3781 20.6927L21.38 20.6935L21.3805 20.6937L21.3824 20.6944L21.3829 20.6946C21.3845 20.6953 21.3861 20.6959 21.3877 20.6965L21.3878 20.6966L21.39 20.6974L21.3905 20.6976L21.3924 20.6984L21.3929 20.6986L21.395 20.6994L21.3953 20.6995L21.4001 20.7014L21.4004 20.7015L21.4025 20.7023L21.4029 20.7025L21.4049 20.7032L21.4053 20.7034L21.4076 20.7043H21.4077C21.4093 20.7049 21.4109 20.7056 21.4125 20.7062L21.4129 20.7063L21.4149 20.7071L21.4154 20.7072L21.4174 20.708L21.4178 20.7082L21.4227 20.71H21.4228L21.4251 20.7109L21.4253 20.711L21.4275 20.7118L21.4278 20.712C21.4303 20.7129 21.4327 20.7138 21.4352 20.7147L21.4375 20.7156L21.4379 20.7157L21.4401 20.7165L21.4403 20.7166C21.4427 20.7175 21.4452 20.7184 21.4476 20.7193L21.4479 20.7194L21.4502 20.7202L21.4503 20.7203L21.4527 20.7211L21.4528 20.7212C21.4545 20.7218 21.4561 20.7223 21.4578 20.723H21.458L21.4603 20.7239H21.4604L21.4627 20.7247L21.463 20.7248C21.4654 20.7257 21.4679 20.7266 21.4704 20.7275H21.4705L21.4728 20.7283L21.4731 20.7284C21.4763 20.7296 21.4797 20.7308 21.483 20.7319L21.4832 20.732L21.4855 20.7328H21.4856C21.489 20.734 21.4923 20.7352 21.4956 20.7363L21.4958 20.7364L21.4981 20.7372L21.4983 20.7373C21.5051 20.7396 21.5118 20.7418 21.5185 20.7441H21.5186C21.5228 20.7455 21.527 20.7469 21.5313 20.7483C21.5389 20.7508 21.5466 20.7533 21.5542 20.7558H21.5543C21.5628 20.7585 21.5713 20.7611 21.5798 20.7638H21.5799C21.5833 20.7648 21.5868 20.7659 21.5901 20.7669H21.5902C21.6099 20.7729 21.6297 20.7787 21.6496 20.7842C21.6531 20.7851 21.6565 20.7861 21.6599 20.787H21.66L21.6624 20.7877L21.6627 20.7878L21.6651 20.7885H21.6652C21.6677 20.7892 21.6703 20.7899 21.6729 20.7905L21.673 20.7906C21.6765 20.7915 21.6799 20.7924 21.6833 20.7933H21.6834C21.6842 20.7935 21.6851 20.7938 21.6859 20.794H21.686L21.6885 20.7947H21.6886C21.6921 20.7956 21.6955 20.7965 21.699 20.7974H21.6991L21.7016 20.798C21.7043 20.7987 21.7068 20.7994 21.7094 20.8H21.7095C21.7138 20.8011 21.7182 20.8022 21.7226 20.8033C21.7269 20.8044 21.7313 20.8054 21.7356 20.8065H21.7357C21.7391 20.8073 21.7426 20.8081 21.746 20.809H21.7463C21.7506 20.81 21.7549 20.811 21.7593 20.8121C21.7707 20.8147 21.7821 20.8173 21.7936 20.8198C21.798 20.8207 21.8024 20.8217 21.8068 20.8226H21.8069C21.8077 20.8228 21.8085 20.823 21.8094 20.8232H21.8095C21.813 20.8239 21.8165 20.8247 21.82 20.8254L21.8202 20.8255L21.828 20.8271H21.8281L21.8305 20.8276L21.831 20.8277L21.8331 20.8281L21.8335 20.8282L21.836 20.8287L21.8412 20.8297L21.8415 20.8298L21.8438 20.8302L21.8441 20.8303L21.8465 20.8308H21.8467L21.8546 20.8323L21.8547 20.8324L21.8571 20.8328L21.8574 20.8329C21.8609 20.8336 21.8644 20.8342 21.8678 20.8349H21.8681L21.8705 20.8354H21.8707L21.8732 20.8359H21.8733C21.875 20.8362 21.8768 20.8365 21.8785 20.8369H21.8787L21.8811 20.8373L21.8814 20.8374L21.8838 20.8378L21.884 20.8379C21.8858 20.8382 21.8875 20.8385 21.8893 20.8388C21.8902 20.839 21.891 20.8391 21.8918 20.8393L21.8922 20.8394L21.8944 20.8397L21.8948 20.8398C21.8974 20.8403 21.9 20.8407 21.9027 20.8412H21.9028L21.9052 20.8416L21.9056 20.8417L21.9079 20.8421H21.9082C21.9108 20.8426 21.9133 20.843 21.9159 20.8434L21.9164 20.8435L21.9186 20.8439H21.919C21.9216 20.8444 21.9242 20.8448 21.9268 20.8452L21.927 20.8453L21.9294 20.8456L21.9298 20.8457L21.932 20.846L21.9324 20.8461L21.9349 20.8465H21.935L21.9402 20.8474H21.9406L21.9428 20.8478H21.9432L21.9455 20.8482L21.9458 20.8483C21.9476 20.8485 21.9493 20.8488 21.9511 20.8491H21.9512L21.9536 20.8495H21.9541L21.9562 20.8498L21.9567 20.8499L21.9589 20.8503H21.9593L21.9645 20.8511L21.9649 20.8512L21.9671 20.8515H21.9675L21.9697 20.8518L21.9702 20.8519C21.9727 20.8523 21.9753 20.8527 21.9779 20.8531L21.9784 20.8532L21.9804 20.8534L21.9811 20.8535L21.9832 20.8538L21.9836 20.8539L21.9888 20.8546L21.9891 20.8547L21.9913 20.855H21.9919L21.9939 20.8553L21.9945 20.8554L21.9967 20.8557L21.997 20.8558L22.0021 20.8565L22.0029 20.8566L22.0047 20.8568L22.0054 20.8569L22.0073 20.8572H22.008C22.0097 20.8575 22.0114 20.8577 22.0131 20.8579L22.0136 20.858L22.0156 20.8582L22.0163 20.8583L22.0182 20.8585L22.0189 20.8586L22.021 20.8589L22.0215 20.859C22.0232 20.8592 22.025 20.8594 22.0267 20.8596H22.027L22.0292 20.8599L22.0298 20.86L22.0319 20.8603H22.0324L22.0347 20.8606H22.035L22.0401 20.8612L22.0408 20.8613L22.0427 20.8616H22.0434L22.0454 20.8619H22.046L22.0512 20.8625L22.0514 20.8626L22.0538 20.8628L22.0542 20.8629L22.0563 20.8631L22.0569 20.8632L22.0593 20.8634L22.0594 20.8635L22.0648 20.8641H22.065L22.0672 20.8643L22.068 20.8644L22.07 20.8646L22.0705 20.8647C22.0722 20.8649 22.074 20.8651 22.0757 20.8652L22.076 20.8653L22.0782 20.8655L22.0789 20.8656L22.0809 20.8658L22.0815 20.8659L22.0835 20.8661H22.0841C22.0858 20.8663 22.0875 20.8665 22.0892 20.8666L22.0899 20.8667L22.0918 20.8669L22.0925 20.867L22.0944 20.8672L22.0952 20.8673L22.0972 20.8675H22.0977L22.1003 20.8678H22.1004L22.1029 20.868L22.1035 20.8681L22.1054 20.8682L22.1063 20.8683L22.1081 20.8685L22.1088 20.8686L22.1109 20.8688H22.1114L22.114 20.869L22.1144 20.8691L22.1165 20.8693H22.1172L22.1192 20.8695L22.1198 20.8696L22.1218 20.8697L22.1224 20.8698L22.1276 20.8703H22.1282L22.1302 20.8705L22.1309 20.8706L22.1327 20.8707L22.1335 20.8708L22.1358 20.871H22.136C22.1369 20.8711 22.1377 20.8711 22.1386 20.8712H22.139L22.1412 20.8714L22.1419 20.8715L22.1438 20.8716L22.1446 20.8717L22.1464 20.8718L22.1472 20.8719L22.1496 20.8721H22.1498L22.1523 20.8723H22.153L22.1549 20.8725L22.1558 20.8726L22.1575 20.8727H22.1584L22.1602 20.8729H22.161L22.1635 20.8731L22.1638 20.8732L22.166 20.8733L22.1669 20.8734L22.1686 20.8735L22.1695 20.8736L22.1713 20.8737L22.172 20.8738L22.1741 20.8739H22.1747L22.1771 20.8741L22.1781 20.8742L22.1797 20.8743L22.1806 20.8744L22.1823 20.8745H22.1833L22.185 20.8746L22.1858 20.8747C22.1875 20.8748 22.1893 20.8749 22.191 20.875H22.1915L22.1935 20.8752H22.1944L22.1962 20.8753L22.197 20.8754L22.199 20.8755H22.1995L22.2022 20.8757H22.2024L22.2047 20.8758L22.2054 20.8759L22.2074 20.876H22.208L22.2101 20.8761H22.2107C22.2124 20.8763 22.2141 20.8764 22.2159 20.8764L22.2164 20.8765L22.2185 20.8766H22.2193L22.221 20.8767H22.2217L22.2237 20.8768H22.2242C22.2259 20.8769 22.2277 20.877 22.2294 20.877H22.2302L22.232 20.8771L22.2329 20.8772L22.2347 20.8773H22.2354L22.2377 20.8774H22.238L22.2407 20.8775H22.241L22.2432 20.8776L22.244 20.8777H22.2459L22.2467 20.8778L22.2485 20.8779H22.2493L22.2516 20.878H22.2519L22.2544 20.8781H22.2552L22.257 20.8782H22.2579L22.2596 20.8783H22.2606L22.2622 20.8784H22.2631L22.2656 20.8785H22.2665L22.2682 20.8786H22.2693H22.2708L22.2718 20.8787H22.2735L22.2744 20.8788H22.2763H22.277L22.2795 20.8789L22.2802 20.879H22.2821H22.283L22.2847 20.8791H22.2856L22.2873 20.8792H22.2882L22.2908 20.8793H22.2933L22.2942 20.8794H22.296H22.2968L22.2986 20.8795H22.2995H22.3014H22.3021L22.3046 20.8796H22.3053H22.3072H22.3081H22.3097L22.3108 20.8797H22.3125H22.3133H22.3155H22.3159C22.3168 20.8797 22.3176 20.8798 22.3185 20.8798H22.3191H22.321H22.322H22.3236H22.3246L22.3264 20.8799H22.3272C22.328 20.8799 22.3289 20.8799 22.3297 20.8799H22.3302H22.3323H22.3333H22.3349H22.3358H22.3376H22.3385H22.3405H22.3411C22.3419 20.8799 22.3427 20.8799 22.3436 20.8799H22.3444H22.3462H22.3471H22.3498H22.3516H22.355V20.88Z" fill="#FCFCFD"/>
<path opacity="0.12" d="M22.3198 14.5148C20.2939 14.5148 18.6516 16.0428 18.6516 17.9275V17.932V17.939V17.9469L18.6517 17.9541C18.6517 17.96 18.6517 17.961 18.6517 17.9618L18.6518 17.9697L18.6519 17.9742L18.652 17.9821L18.6521 17.989L18.6523 17.9969L18.6525 18.0048C18.6527 18.0102 18.6527 18.0112 18.6527 18.0121L18.6529 18.0197C18.6531 18.0255 18.6531 18.0265 18.6532 18.0276L18.6533 18.032L18.6536 18.0399L18.6538 18.0466L18.6541 18.0545L18.6545 18.0624L18.6548 18.0698C18.6551 18.0754 18.6551 18.0764 18.6551 18.0772L18.6552 18.0782L18.6555 18.085L18.6558 18.0894L18.6562 18.0973L18.6566 18.1042L18.657 18.1119L18.6575 18.1198C18.6578 18.1253 18.6579 18.1263 18.658 18.1273L18.6584 18.1347L18.6589 18.1424L18.6594 18.1502L18.6598 18.1546C18.6601 18.1597 18.6602 18.1605 18.6602 18.1615C18.6607 18.1669 18.6608 18.1681 18.6608 18.1692L18.6614 18.1769L18.6621 18.1847L18.6624 18.1892L18.6626 18.192L18.6633 18.1995L18.6639 18.2073C18.6644 18.2126 18.6645 18.2139 18.6647 18.215L18.6651 18.2193L18.6658 18.227C18.6662 18.2316 18.6663 18.2328 18.6664 18.2339C18.6669 18.2394 18.667 18.2405 18.6672 18.2417L18.6678 18.2488L18.6686 18.2564C18.6689 18.2593 18.6692 18.2617 18.6694 18.264C18.6696 18.2658 18.6697 18.2669 18.6698 18.2679L18.6702 18.2718C18.6708 18.2771 18.6709 18.2783 18.671 18.2795L18.6719 18.2867L18.6724 18.2912L18.6732 18.2983C18.6738 18.3035 18.6739 18.3045 18.674 18.3055C18.6747 18.3109 18.6748 18.312 18.6749 18.3129C18.6755 18.3184 18.6757 18.3194 18.6758 18.3205C18.6765 18.3259 18.6766 18.327 18.6768 18.3281V18.3288L18.6777 18.3358C18.6784 18.341 18.6786 18.3422 18.6787 18.3432L18.6796 18.3504L18.6806 18.358C18.681 18.3611 18.6813 18.3633 18.6816 18.3656C18.6824 18.371 18.6825 18.3721 18.6827 18.3733L18.6833 18.3775L18.6842 18.3843L18.6843 18.385L18.6853 18.3919L18.687 18.403L18.6875 18.4067L18.6887 18.414C18.6892 18.4171 18.6895 18.4194 18.6899 18.4216L18.6911 18.4292C18.6913 18.4307 18.6915 18.4316 18.6917 18.4327C18.6921 18.4356 18.6925 18.4379 18.6929 18.4403L18.6935 18.4439L18.6947 18.4513C18.6951 18.4541 18.6955 18.4565 18.6959 18.4588C18.6968 18.464 18.697 18.4651 18.6972 18.4664L18.6991 18.4773C18.6994 18.479 18.6995 18.48 18.6997 18.4812L18.701 18.4884C18.7015 18.4911 18.7019 18.4936 18.7023 18.4959C18.7033 18.501 18.7035 18.5021 18.7037 18.5033L18.7045 18.5073C18.7049 18.5096 18.7053 18.5121 18.7058 18.5143L18.7072 18.5219C18.7083 18.5281 18.7088 18.5305 18.7092 18.5328C18.7097 18.5355 18.7102 18.5379 18.7107 18.5403C18.7109 18.5416 18.7112 18.5427 18.7114 18.5439C18.7119 18.5466 18.7124 18.5488 18.7128 18.5513C18.7134 18.5539 18.7138 18.5563 18.7143 18.5587C18.7156 18.5649 18.716 18.5672 18.7165 18.5697C18.7178 18.576 18.7191 18.5819 18.7203 18.588C18.7217 18.5942 18.7229 18.6003 18.7243 18.6063C18.7269 18.6186 18.7296 18.6307 18.7324 18.6428C18.733 18.6453 18.7335 18.6477 18.7341 18.6501C18.735 18.6539 18.7358 18.6574 18.7366 18.6611C18.7381 18.6672 18.7395 18.6732 18.741 18.6792C18.9756 19.6433 19.6473 20.4656 20.5827 20.9342C20.585 20.9354 20.5873 20.9365 20.5895 20.9376C20.5919 20.9388 20.5942 20.94 20.5964 20.9411L20.5996 20.9427L20.6065 20.9461L20.6135 20.9495L20.6139 20.9497C20.6194 20.9524 20.6215 20.9534 20.6237 20.9545L20.6271 20.9561L20.6308 20.9579L20.6378 20.9613L20.6409 20.9628C20.7916 21.0349 20.9759 20.9799 21.0531 20.8402C21.1302 20.7007 21.0713 20.5294 20.9215 20.4574C19.4201 19.7386 18.8294 18.0235 19.602 16.6267C20.126 15.6795 21.1749 15.084 22.32 15.0839C23.6665 15.0839 24.8724 15.922 25.2526 17.1221C25.3003 17.2728 25.4703 17.359 25.6322 17.3145C25.7942 17.2701 25.8868 17.112 25.839 16.9614C25.6919 16.4979 25.4405 16.069 25.1015 15.7029C25.0932 15.6938 25.0848 15.6848 25.0763 15.6759C25.0728 15.6721 25.0708 15.6701 25.0689 15.668C25.0638 15.6627 25.0619 15.6607 25.06 15.6587L25.0568 15.6554C25.0548 15.6533 25.0529 15.6513 25.0509 15.6492L25.0493 15.6476L25.0478 15.646L25.0419 15.64L25.0415 15.6396C25.0376 15.6355 25.0352 15.6331 25.0326 15.6305C25.0305 15.6283 25.0285 15.6263 25.0265 15.6243C25.0213 15.619 25.0196 15.6173 25.0177 15.6154L25.0143 15.612C25.0123 15.6099 25.011 15.6085 25.0096 15.6071L25.0077 15.6052C25.0057 15.6032 25.0053 15.6028 25.0049 15.6024C25.0032 15.6007 25.0018 15.5993 25.0005 15.598L24.9973 15.5947C24.9945 15.592 24.9937 15.5912 24.993 15.5905L24.9908 15.5883C24.9862 15.5837 24.9849 15.5824 24.9836 15.5811L24.9786 15.5762C24.9769 15.5746 24.9755 15.5733 24.9742 15.5719L24.9709 15.5688L24.9692 15.5671L24.9632 15.5613L24.9615 15.5597L24.9565 15.5548L24.9547 15.5531L24.9487 15.5473L24.9475 15.5462L24.9398 15.5389L24.9319 15.5314L24.926 15.5259L24.9189 15.5192L24.9182 15.5186L24.9109 15.5118L24.9104 15.5113L24.9041 15.5055L24.9024 15.5039L24.8951 15.4972L24.8899 15.4924L24.8854 15.4883L24.883 15.4861C24.8789 15.4824 24.8782 15.4818 24.8776 15.4812L24.8757 15.4795L24.8712 15.4754L24.8687 15.4731L24.8631 15.4682L24.8611 15.4663L24.8552 15.4612L24.8542 15.4604L24.8471 15.4541L24.8461 15.4532L24.8389 15.4469L24.8381 15.4462L24.8322 15.4411L24.83 15.4391L24.8251 15.4347L24.8219 15.432L24.8181 15.4287L24.8126 15.4239L24.8108 15.4224L24.8045 15.4171L24.8038 15.4164L24.7968 15.4105L24.7962 15.4099L24.7887 15.4036L24.7815 15.3976L24.7798 15.396L24.7741 15.3913L24.7715 15.3891L24.7677 15.3859L24.7619 15.3811L24.7596 15.3792L24.7537 15.3744L24.7529 15.3737L24.7453 15.3674C24.7395 15.3628 24.7381 15.3616 24.7369 15.3606L24.7363 15.3601L24.7309 15.3556L24.7266 15.3522L24.7247 15.3507L24.7182 15.3454L24.7163 15.3439L24.7078 15.337L24.7017 15.3322L24.6994 15.3303L24.6955 15.3273C24.6917 15.3242 24.6903 15.3231 24.689 15.3221L24.6884 15.3216L24.6825 15.317L24.6786 15.3139L24.674 15.3103L24.6723 15.309C24.667 15.3048 24.6666 15.3046 24.6661 15.3042L24.6639 15.3025L24.6595 15.2991L24.6549 15.2955L24.651 15.2925L24.645 15.2879L24.6383 15.2829L24.6357 15.2809C24.6323 15.2783 24.6311 15.2774 24.6297 15.2763L24.6256 15.2732L24.6234 15.2716L24.617 15.2668L24.6165 15.2664L24.6083 15.2602L24.6062 15.2587L24.6017 15.2553C24.5988 15.2532 24.5983 15.2528 24.5976 15.2523C24.5938 15.2495 24.5924 15.2485 24.591 15.2474L24.587 15.2445C24.5829 15.2415 24.5816 15.2406 24.5803 15.2396L24.5781 15.238L24.5694 15.2317L24.5674 15.2302C24.5642 15.2279 24.5613 15.2258 24.5586 15.2239L24.5582 15.2236L24.5498 15.2175L24.5476 15.216C24.5431 15.2127 24.5409 15.2112 24.5388 15.2097L24.5367 15.2082L24.53 15.2035L24.5279 15.202C24.5219 15.1979 24.5206 15.1969 24.5191 15.1959L24.517 15.1944L24.5148 15.1929C24.5123 15.1911 24.5102 15.1897 24.508 15.1882L24.5059 15.1867C24.5021 15.184 24.5006 15.183 24.4991 15.182L24.4967 15.1803L24.4881 15.1744L24.4858 15.1729L24.4791 15.1683L24.4747 15.1653C24.4723 15.1637 24.4702 15.1622 24.468 15.1607L24.4656 15.1591L24.4635 15.1578C24.4613 15.1563 24.4591 15.1548 24.4569 15.1533L24.4544 15.1517L24.4478 15.1473L24.4437 15.1446L24.443 15.1441C24.4395 15.1418 24.4381 15.1409 24.4366 15.1399L24.4321 15.1369C24.4298 15.1354 24.4276 15.134 24.4254 15.1326C24.4207 15.1295 24.4185 15.1281 24.4163 15.1266L24.4141 15.1252L24.4072 15.1208L24.4006 15.1165L24.3959 15.1134L24.3933 15.1118C24.3876 15.1081 24.386 15.1072 24.3846 15.1063C24.3782 15.1022 24.3768 15.1013 24.3754 15.1005L24.3712 15.0978L24.364 15.0933L24.3571 15.0889L24.3527 15.0862L24.3499 15.0845L24.3432 15.0803L24.3411 15.079C24.3348 15.0752 24.3332 15.0742 24.3317 15.0733L24.3294 15.0719C24.3263 15.07 24.3232 15.0681 24.3201 15.0663L24.3178 15.0649C24.3139 15.0625 24.3101 15.0602 24.3063 15.0579C24.3039 15.0565 24.3016 15.0551 24.2993 15.0537C24.2923 15.0496 24.29 15.0482 24.2878 15.0469L24.2855 15.0455C24.2829 15.044 24.2807 15.0426 24.2784 15.0413L24.278 15.0411C24.2713 15.0371 24.2689 15.0357 24.2667 15.0344L24.2622 15.0318C24.2602 15.0307 24.2589 15.0299 24.2574 15.029L24.2551 15.0277L24.2456 15.0222L24.2454 15.0221L24.2411 15.0196C24.2384 15.0181 24.2362 15.0168 24.2339 15.0155L24.2317 15.0142C24.2289 15.0126 24.2266 15.0114 24.2244 15.0101L24.2199 15.0075L24.2126 15.0034C24.2061 14.9998 24.2047 14.999 24.2031 14.9981L24.1985 14.9956C24.1958 14.9941 24.1934 14.9928 24.1911 14.9915L24.1841 14.9876C24.1824 14.9867 24.1809 14.9859 24.1794 14.985L24.177 14.9837C24.1744 14.9823 24.1722 14.981 24.1697 14.9797L24.1674 14.9785C24.1624 14.9757 24.1602 14.9745 24.1578 14.9732L24.1556 14.9721L24.1531 14.9708C24.1506 14.9694 24.1483 14.9681 24.146 14.9669C24.1409 14.9642 24.1386 14.963 24.1362 14.9617L24.1338 14.9605C24.1288 14.958 24.1265 14.9568 24.1241 14.9556C24.1207 14.9537 24.1199 14.9533 24.1192 14.953L24.112 14.9492L24.1023 14.9442L24.0996 14.9428L24.0977 14.9418C24.0917 14.9387 24.091 14.9384 24.0902 14.938L24.0854 14.9355C24.0836 14.9346 24.0821 14.9338 24.0804 14.933C24.0771 14.9313 24.0764 14.9309 24.0757 14.9306L24.0684 14.9269C24.0624 14.9239 24.0594 14.9223 24.0561 14.9207L24.0537 14.9195C24.0463 14.9157 24.039 14.9121 24.0316 14.9085C24.0275 14.9065 24.0259 14.9057 24.0242 14.9049C24.0168 14.9012 24.0144 14.9001 24.012 14.8989C24.0045 14.8953 24.0022 14.8942 23.9997 14.893L23.9972 14.8918C23.9946 14.8906 23.9923 14.8895 23.9898 14.8883C23.9823 14.8847 23.9798 14.8835 23.9774 14.8824L23.975 14.8813C23.9715 14.8796 23.9683 14.8782 23.965 14.8766C23.96 14.8743 23.9576 14.8731 23.9551 14.872L23.9527 14.8709L23.9524 14.8708C23.9476 14.8685 23.9452 14.8674 23.9427 14.8663C23.9368 14.8635 23.9336 14.8621 23.9303 14.8606C23.925 14.8582 23.9227 14.8571 23.9202 14.856L23.9177 14.8549L23.9102 14.8515L23.905 14.8492L23.9027 14.8481L23.8952 14.8448C23.89 14.8425 23.8876 14.8414 23.8851 14.8403L23.88 14.8382C23.8783 14.8374 23.8767 14.8367 23.875 14.8359L23.8723 14.8348L23.8624 14.8305L23.8601 14.8295C23.8564 14.8279 23.8531 14.8265 23.8498 14.8251C23.8446 14.8228 23.8422 14.8218 23.8397 14.8207L23.8373 14.8197C23.8328 14.8178 23.8312 14.8171 23.8295 14.8164L23.8246 14.8143L23.8219 14.8132C23.8194 14.8121 23.8168 14.8111 23.8144 14.81L23.8092 14.8079C23.8074 14.8072 23.8058 14.8065 23.8041 14.8058L23.8016 14.8048C23.797 14.8029 23.7955 14.8023 23.7938 14.8016L23.7885 14.7994C23.7853 14.7981 23.7818 14.7967 23.7786 14.7954C23.7733 14.7933 23.7709 14.7923 23.7683 14.7913L23.7657 14.7903C23.7613 14.7884 23.7597 14.7878 23.758 14.7871L23.7525 14.7849L23.7502 14.784L23.7452 14.7821L23.7374 14.7791C23.7356 14.7784 23.7341 14.7777 23.7323 14.7771L23.7299 14.7761C23.7244 14.774 23.7219 14.7731 23.7193 14.7721L23.7167 14.7711C23.7141 14.7701 23.7116 14.7691 23.709 14.7682C23.7012 14.7652 23.6987 14.7642 23.6963 14.7633L23.6937 14.7623C23.6909 14.7613 23.6882 14.7603 23.6859 14.7594L23.6808 14.7575C23.6787 14.7567 23.677 14.7561 23.6754 14.7555L23.6728 14.7546C23.6657 14.7519 23.6641 14.7514 23.6624 14.7507L23.6573 14.7489L23.6546 14.7479C23.6527 14.7472 23.6511 14.7466 23.6493 14.746L23.6443 14.7441C23.6414 14.7431 23.6389 14.7422 23.6364 14.7413L23.636 14.7411C23.6308 14.7393 23.6283 14.7384 23.6258 14.7376L23.6228 14.7365L23.6152 14.7339L23.6076 14.7312L23.5997 14.7284L23.5943 14.7266L23.5866 14.724L23.576 14.7203L23.5733 14.7193L23.5707 14.7184L23.5652 14.7166C23.5572 14.7139 23.5546 14.713 23.5521 14.7122L23.5496 14.7114L23.5414 14.7087L23.5362 14.707C23.5333 14.7061 23.5309 14.7053 23.5282 14.7044C23.5201 14.7018 23.5176 14.701 23.515 14.7001C23.5087 14.6981 23.5053 14.697 23.5018 14.6959L23.4992 14.6951C23.4944 14.6936 23.4928 14.6931 23.491 14.6925L23.4859 14.6909L23.4777 14.6883C23.4722 14.6866 23.4697 14.6858 23.467 14.685L23.4644 14.6842L23.4617 14.6834C23.4589 14.6826 23.4563 14.6818 23.4538 14.681L23.4483 14.6794C23.4463 14.6788 23.4446 14.6783 23.4428 14.6777L23.4376 14.6762C23.4346 14.6753 23.4321 14.6746 23.4294 14.6738L23.427 14.6731C23.4221 14.6716 23.4205 14.6711 23.4187 14.6706L23.4136 14.6691C23.4087 14.6677 23.407 14.6672 23.4053 14.6667L23.3996 14.6651C23.397 14.6644 23.3944 14.6636 23.3919 14.6629L23.3887 14.662L23.3784 14.6591L23.378 14.659C23.371 14.657 23.3693 14.6566 23.3675 14.6561L23.3622 14.6546C23.36 14.654 23.3584 14.6535 23.3566 14.653L23.3486 14.6509L23.3405 14.6487C23.3347 14.6472 23.3323 14.6465 23.3296 14.6458L23.327 14.6451L23.3185 14.6429L23.3134 14.6415C23.3084 14.6402 23.3068 14.6398 23.305 14.6393C23.2967 14.6372 23.294 14.6365 23.2914 14.6358C23.2838 14.6339 23.2823 14.6335 23.2805 14.633L23.2772 14.6322L23.2667 14.6296L23.2614 14.6282L23.2557 14.6268L23.2526 14.6261L23.248 14.6249L23.2397 14.6229L23.2341 14.6216L23.2258 14.6196L23.2227 14.6189L23.2174 14.6176L23.2122 14.6164C23.2073 14.6153 23.2055 14.6149 23.2038 14.6145L23.1978 14.6131L23.19 14.6113L23.1817 14.6094L23.1763 14.6082L23.1677 14.6063L23.1617 14.605L23.159 14.6044L23.1539 14.6033L23.1477 14.602L23.1401 14.6004L23.1318 14.5986L23.1263 14.5975L23.1252 14.5972L23.1179 14.5957L23.1115 14.5944L23.1038 14.5928L23.0958 14.5912L23.0899 14.59L23.0819 14.5884C23.0795 14.5879 23.0776 14.5875 23.0759 14.5872L23.0681 14.5857L23.0611 14.5844L23.0542 14.5831L23.0528 14.5828L23.047 14.5817L23.0393 14.5803L23.0315 14.5789L23.0254 14.5777L23.0174 14.5763L23.0136 14.5756L23.0106 14.5751L23.0032 14.5738L22.9965 14.5726L22.9887 14.5712L22.9808 14.5699L22.9747 14.5688L22.9719 14.5684L22.9666 14.5675L22.9604 14.5665L22.9525 14.5652L22.9458 14.5641C22.9396 14.5631 22.9387 14.5629 22.9379 14.5628L22.9319 14.5618L22.9267 14.561L22.924 14.5606L22.9155 14.5593L22.9068 14.5579L22.9015 14.5571L22.8953 14.5562L22.8873 14.5551L22.8813 14.5542L22.8804 14.5541L22.8731 14.553L22.8671 14.5522L22.8585 14.551L22.8523 14.5502L22.844 14.549L22.8379 14.5482L22.8298 14.5472L22.8272 14.5469L22.8237 14.5464C22.8192 14.5458 22.8174 14.5456 22.8156 14.5454L22.8094 14.5446C22.8048 14.544 22.8032 14.5438 22.8013 14.5436L22.7929 14.5426L22.7872 14.5419C22.7791 14.541 22.7774 14.5408 22.7755 14.5406L22.7727 14.5402L22.767 14.5396L22.7639 14.5393L22.7585 14.5387L22.7497 14.538L22.7443 14.5374C22.7391 14.5369 22.7371 14.5367 22.7354 14.5365L22.7301 14.536L22.7211 14.5351L22.7158 14.5345L22.7085 14.5338L22.7013 14.5331L22.694 14.5324L22.6868 14.5317L22.6798 14.531L22.6722 14.5304L22.6656 14.5297L22.6574 14.529L22.6511 14.5285C22.6447 14.5279 22.6439 14.5278 22.643 14.5278L22.6367 14.5273C22.6321 14.5269 22.6304 14.5268 22.6285 14.5267L22.6222 14.5262L22.6141 14.5256L22.6084 14.5252H22.6078L22.5996 14.5246L22.5933 14.5241L22.5851 14.5236L22.5787 14.5232L22.5705 14.5226L22.5615 14.522L22.5561 14.5217L22.5497 14.5213L22.5415 14.5208L22.5352 14.5205L22.5269 14.52L22.5207 14.5197L22.5142 14.5193L22.5062 14.5189L22.4997 14.5186L22.4915 14.5183L22.4858 14.518H22.4851L22.4768 14.5177L22.4678 14.5173L22.4624 14.5171C22.4569 14.5169 22.455 14.5169 22.4532 14.5168L22.4495 14.5167L22.4413 14.5164L22.4349 14.5162C22.4304 14.5161 22.4284 14.516 22.4267 14.516L22.4202 14.5158L22.412 14.5156L22.4056 14.5154L22.3973 14.5152L22.3917 14.5151L22.3846 14.515L22.3767 14.5149L22.3697 14.5148L22.3618 14.5147L22.3549 14.5146C22.3485 14.5146 22.3478 14.5146 22.3468 14.5146H22.3413H22.3321H22.3266L22.3198 14.5148Z" fill="#FCFCFD"/>
<path d="M13.6798 19.4399C11.6916 19.4399 10.0798 21.0517 10.0798 23.0399C10.0798 25.0281 11.6916 26.6399 13.6798 26.6399C15.668 26.6399 17.2798 25.0281 17.2798 23.0399C17.2798 21.0517 15.668 19.4399 13.6798 19.4399Z" fill="#FF3378"/>
<path opacity="0.24" d="M15.55 25.1004C16.8966 24.038 16.8966 22.3155 15.55 21.2531L15.5468 21.2506L15.5464 21.2502L15.5433 21.2478L15.5428 21.2474L15.5397 21.245L15.5392 21.2446L15.5361 21.2421L15.5359 21.242C15.5349 21.2412 15.5339 21.2404 15.5329 21.2396L15.5324 21.2392C15.5314 21.2385 15.5304 21.2377 15.5295 21.2369L15.5288 21.2364C15.5278 21.2356 15.5268 21.2349 15.5258 21.2341L15.5252 21.2336L15.5222 21.2313L15.5217 21.231C15.5208 21.2303 15.5198 21.2295 15.5188 21.2288L15.5184 21.2284C15.5174 21.2277 15.5164 21.2269 15.5154 21.2261L15.5148 21.2256L15.5118 21.2234L15.5112 21.2229L15.5082 21.2206L15.5076 21.2202L15.5049 21.2181L15.5044 21.2177L15.5015 21.2154L15.5007 21.2149C15.4998 21.2142 15.4989 21.2134 15.4979 21.2127L15.4971 21.2121C15.4961 21.2114 15.4952 21.2107 15.4942 21.21L15.4934 21.2093L15.491 21.2075L15.4902 21.2069C15.4893 21.2063 15.4884 21.2056 15.4874 21.2049L15.4866 21.2042L15.4838 21.2021L15.4829 21.2014L15.4802 21.1994L15.4792 21.1987L15.4768 21.1969L15.4758 21.1961L15.4734 21.1943L15.4724 21.1936L15.4697 21.1916L15.4686 21.1908L15.466 21.1889L15.4648 21.188L15.4627 21.1865L15.4613 21.1854L15.4593 21.1839L15.4581 21.183L15.4556 21.1812L15.4543 21.1803L15.4518 21.1785L15.4505 21.1775L15.4486 21.1762L15.4467 21.1748L15.4451 21.1736L15.4432 21.1722L15.4414 21.1709L15.4399 21.1698L15.4376 21.1682L15.436 21.1671L15.4345 21.166L15.4322 21.1643L15.4309 21.1634L15.4284 21.1616L15.4271 21.1607L15.4254 21.1595L15.4233 21.158L15.4217 21.1568L15.4201 21.1557L15.4178 21.1541L15.4165 21.1532L15.4139 21.1513L15.4127 21.1505L15.4091 21.1479L15.409 21.1478L15.407 21.1464L15.4065 21.146L15.4031 21.1437L15.4023 21.1432L15.3991 21.1409L15.3985 21.1405C15.3952 21.1382 15.3918 21.1358 15.3886 21.1336L15.388 21.1332L15.3844 21.1307L15.3841 21.1305C15.3745 21.1238 15.3649 21.1172 15.3552 21.1107C15.2747 21.0561 15.1918 21.005 15.1067 20.9574L15.1064 20.9572L15.1026 20.955L15.1019 20.9546C15.1008 20.954 15.0997 20.9534 15.0985 20.9527L15.0977 20.9523L15.0915 20.9488L15.0903 20.9482L15.0875 20.9466L15.0861 20.9459L15.0837 20.9445L15.0819 20.9436L15.0804 20.9427L15.0778 20.9413L15.0767 20.9407C14.8811 20.8336 14.6125 20.872 14.4769 21.0263C14.3413 21.1805 14.3897 21.3922 14.585 21.4993C14.712 21.5691 14.8309 21.6476 14.9403 21.734C15.9487 22.5313 15.9487 23.8222 14.9403 24.6195C14.772 24.7523 14.772 24.9676 14.9403 25.1004C15.1088 25.2332 15.3816 25.2332 15.55 25.1004Z" fill="#FCFCFD"/>
<path opacity="0.12" d="M13.4985 19.4399C11.6106 19.4399 10.0801 21.0856 10.0801 23.1156V23.1217V23.1229V23.126V23.1278V23.1293V23.1309V23.1323V23.1339V23.1354V23.137V23.1384V23.1401V23.1415V23.1432V23.1445V23.1462V23.1476V23.1494V23.1506V23.1524V23.1538V23.1555V23.1567L10.0802 23.1585V23.1599V23.1618V23.1628V23.1648V23.166L10.0803 23.168V23.169V23.172V23.1728V23.1752V23.1758V23.1782L10.0804 23.1794V23.1812V23.1825L10.0805 23.1843V23.1855V23.1875L10.0806 23.1885V23.1904V23.1917L10.0807 23.1934V23.1947V23.1965L10.0808 23.1978V23.1996V23.2008L10.0809 23.2025V23.2039V23.2057L10.081 23.2069V23.2088V23.2099L10.0811 23.2118V23.213V23.2146V23.2161L10.0812 23.2178V23.2191L10.0813 23.2212V23.2221L10.0814 23.2251V23.2252L10.0815 23.2282V23.2294L10.0816 23.2313V23.2323L10.0817 23.2344V23.2352L10.0818 23.2374V23.2385L10.0819 23.2404V23.2418L10.082 23.2434V23.2447L10.0821 23.2465V23.2478L10.0822 23.2495V23.2508L10.0823 23.2526V23.2538L10.0824 23.2557V23.2568L10.0825 23.2588V23.2599L10.0826 23.2619V23.2629L10.0827 23.2648L10.0828 23.2661V23.2679V23.269L10.0829 23.2711L10.083 23.2721L10.0831 23.2747V23.2751L10.0832 23.2778V23.2782L10.0835 23.2843V23.2848L10.0836 23.2873V23.2883L10.0837 23.2903L10.0838 23.2915L10.0839 23.2934V23.2945L10.084 23.2964L10.0841 23.2976L10.0842 23.2994V23.3007L10.0843 23.3024L10.0844 23.3036L10.0845 23.3055V23.3067L10.0846 23.3085L10.0847 23.3098L10.0848 23.3115L10.0849 23.3128L10.085 23.3145V23.3158L10.0851 23.3176L10.0852 23.3189L10.0853 23.3207V23.3219L10.0854 23.3238L10.0855 23.3249L10.0856 23.3271L10.0857 23.3279L10.0858 23.3304V23.3309L10.0861 23.337L10.0862 23.3373L10.0863 23.34L10.0864 23.3408L10.0865 23.3431V23.3439L10.0867 23.3461V23.347L10.0869 23.3491V23.3499L10.087 23.3522L10.0871 23.353L10.0872 23.3552L10.0873 23.3561L10.0874 23.3583L10.0875 23.3592L10.0876 23.3612L10.0877 23.3623L10.0878 23.3641L10.0879 23.3655L10.088 23.3671L10.0881 23.3685L10.0882 23.3702L10.0883 23.3715L10.0884 23.3733L10.0885 23.3744L10.0886 23.3764V23.3775L10.0888 23.3794V23.3804L10.089 23.3825V23.3835L10.0892 23.3863V23.3865L10.0899 23.3957V23.396L10.0901 23.3988V23.3989L10.0903 23.4017V23.4025L10.0905 23.4047L10.0906 23.4055L10.0907 23.4077L10.0908 23.4087L10.091 23.4107L10.0911 23.4119L10.0912 23.4136L10.0913 23.4149L10.0914 23.4167L10.0915 23.4179L10.0917 23.4198V23.4208L10.0919 23.423V23.4238L10.0921 23.4259L10.0922 23.4269L10.0924 23.429V23.4299L10.0926 23.4321L10.0927 23.4329L10.0929 23.4353V23.4359L10.0931 23.4385V23.4389L10.0941 23.4511L10.0942 23.4518L10.0944 23.4541V23.4547L10.0946 23.4572L10.0947 23.4578L10.0949 23.4601L10.095 23.4611L10.0952 23.4631L10.0953 23.4642L10.0954 23.4662L10.0955 23.467L10.0957 23.4693L10.0958 23.47L10.096 23.4722L10.0961 23.473L10.0962 23.4752L10.0963 23.4762L10.0965 23.4783L10.0966 23.4791L10.0968 23.4814L10.0969 23.4821L10.0971 23.4845L10.0972 23.4851L10.0974 23.4874L10.0975 23.4882C10.0981 23.4953 10.0988 23.5023 10.0995 23.5094V23.5096L10.0998 23.5123L10.0999 23.5131L10.1001 23.5154L10.1002 23.516L10.1004 23.5184L10.1005 23.519L10.1008 23.5214V23.5221L10.101 23.5243L10.1011 23.5251L10.1014 23.5274V23.5281L10.1017 23.5304L10.1018 23.5311L10.102 23.5336L10.1021 23.534L10.1023 23.5366L10.1024 23.5371L10.1027 23.5399V23.54L10.103 23.543V23.5431C10.1037 23.5492 10.1044 23.5552 10.1051 23.5613V23.5614L10.1054 23.5644V23.5645C10.1055 23.5654 10.1056 23.5664 10.1057 23.5674V23.5677L10.106 23.5704L10.1061 23.5707L10.1064 23.5734V23.5738L10.1068 23.5765V23.5767L10.1071 23.5794V23.5798L10.1075 23.5826V23.5827L10.1078 23.5855V23.5858L10.1082 23.5885V23.5888L10.1085 23.5916L10.1086 23.5918C10.1098 23.6019 10.111 23.6119 10.1123 23.622L10.1124 23.6223L10.1127 23.6251L10.1131 23.6281V23.6282L10.1135 23.6311V23.6312L10.1139 23.634V23.6343L10.1143 23.6371V23.6372C10.1144 23.6382 10.1146 23.6392 10.1147 23.6402C10.1166 23.6544 10.1185 23.6684 10.1205 23.6824V23.6825C10.1211 23.6865 10.1217 23.6904 10.1223 23.6944V23.6945C10.2434 24.5141 10.6194 25.2653 11.1888 25.8255C11.3291 25.9613 11.5453 25.9491 11.6716 25.7983C11.7963 25.6493 11.7871 25.4204 11.6508 25.2837C10.5373 24.1864 10.4619 22.3263 11.4823 21.129C12.0003 20.5212 12.7318 20.1751 13.4985 20.1751C14.5119 20.1741 15.4426 20.7764 15.9162 21.7399C16.0047 21.9192 16.2116 21.9874 16.3784 21.8923C16.5451 21.7971 16.6086 21.5746 16.5201 21.3953C16.0669 20.4768 15.2738 19.807 14.3364 19.5513H14.3363C14.3268 19.5487 14.3174 19.5462 14.3079 19.5437C14.2983 19.5412 14.2889 19.5388 14.2793 19.5364H14.2792C14.2768 19.5357 14.2745 19.5352 14.2721 19.5346H14.272C14.2684 19.5337 14.265 19.5328 14.2614 19.532L14.2613 19.5319C14.2553 19.5304 14.2495 19.529 14.2434 19.5276H14.2433C14.2397 19.5267 14.2362 19.5259 14.2326 19.525H14.2325C14.2301 19.5244 14.2278 19.5239 14.2254 19.5233H14.2253C14.2218 19.5225 14.2183 19.5217 14.2147 19.5209L14.2144 19.5208L14.2074 19.5192L14.2073 19.5191C14.2037 19.5183 14.2002 19.5175 14.1966 19.5167H14.1964C14.1928 19.5159 14.1893 19.5151 14.1857 19.5143H14.1856L14.1785 19.5128L14.1783 19.5127C14.1747 19.5119 14.1712 19.5112 14.1676 19.5104H14.1675C14.1652 19.5099 14.1627 19.5094 14.1604 19.5089L14.1602 19.5088L14.1567 19.5081L14.1495 19.5066H14.1493C14.147 19.5061 14.1446 19.5056 14.1422 19.5051H14.142L14.1385 19.5044H14.1384C14.1361 19.5039 14.1337 19.5034 14.1314 19.503L14.1309 19.5029C14.1274 19.5021 14.1238 19.5015 14.1204 19.5008L14.1202 19.5007L14.1131 19.4994L14.1127 19.4993C14.1092 19.4986 14.1057 19.4979 14.1021 19.4972H14.102L14.0949 19.4958H14.0945L14.0913 19.4952L14.091 19.4951L14.0874 19.4944L14.084 19.4938L14.0836 19.4937C14.0813 19.4933 14.0789 19.4928 14.0766 19.4924L14.0762 19.4923L14.073 19.4917H14.0727C14.0703 19.4913 14.068 19.4909 14.0657 19.4904H14.0652C14.0629 19.4899 14.0605 19.4895 14.0582 19.4891H14.058L14.0548 19.4885L14.0542 19.4884L14.0473 19.4872L14.0468 19.4871L14.0436 19.4865H14.0434L14.0398 19.4859L14.0396 19.4858L14.0364 19.4853L14.0359 19.4852C14.0336 19.4848 14.0312 19.4844 14.0289 19.4841L14.0285 19.484L14.0253 19.4834H14.025L14.0179 19.4822H14.0175C14.0152 19.4818 14.0129 19.4814 14.0106 19.481L14.01 19.4809C14.009 19.4807 14.008 19.4806 14.007 19.4804L14.0064 19.4803L13.9995 19.4792H13.999C13.9979 19.479 13.9969 19.4789 13.9958 19.4786H13.9955L13.992 19.4781L13.9916 19.478L13.9886 19.4775L13.9879 19.4774C13.9857 19.4771 13.9834 19.4768 13.9812 19.4764L13.9803 19.4763L13.9774 19.4758H13.977L13.9735 19.4752H13.9732L13.9701 19.4747L13.9694 19.4746L13.9661 19.4741L13.9626 19.4736L13.962 19.4735L13.9591 19.4731L13.9585 19.473C13.9563 19.4727 13.9539 19.4723 13.9517 19.472L13.9509 19.4719L13.9477 19.4715H13.9475L13.944 19.471L13.9435 19.4709L13.9405 19.4705L13.9399 19.4704C13.9376 19.4701 13.9352 19.4698 13.9329 19.4695L13.9325 19.4694C13.9314 19.4692 13.9303 19.4691 13.9292 19.469L13.9289 19.4689L13.9254 19.4684H13.9251L13.922 19.468L13.9212 19.4679L13.9144 19.467L13.9138 19.4669C13.9128 19.4668 13.9118 19.4667 13.9108 19.4666L13.9102 19.4665L13.9068 19.466H13.9065L13.9034 19.4656L13.9027 19.4655L13.8995 19.4651H13.8992C13.8981 19.4649 13.8969 19.4648 13.8958 19.4647L13.8952 19.4646L13.8922 19.4642L13.8916 19.4641C13.8893 19.4639 13.887 19.4636 13.8847 19.4633L13.884 19.4632L13.881 19.4628H13.8806L13.8772 19.4624L13.8764 19.4623L13.8737 19.462L13.8729 19.4619L13.8661 19.4611L13.8654 19.461L13.8624 19.4607L13.8619 19.4606C13.8607 19.4605 13.8596 19.4603 13.8584 19.4602H13.858L13.8549 19.4598H13.8543L13.8473 19.459L13.8467 19.4589L13.8437 19.4586H13.8432C13.842 19.4584 13.8408 19.4583 13.8396 19.4582H13.8395L13.8362 19.4578H13.8355L13.8325 19.4575L13.832 19.4574L13.8287 19.4571L13.828 19.457L13.8251 19.4567H13.8244C13.8221 19.4564 13.8199 19.4562 13.8176 19.456L13.8168 19.4559L13.8138 19.4556H13.8133C13.8122 19.4555 13.811 19.4554 13.8099 19.4552H13.8093L13.8063 19.4549L13.8056 19.4548L13.8022 19.4545L13.7988 19.4542L13.798 19.4541L13.7952 19.4539L13.7945 19.4538L13.7911 19.4535H13.7905L13.7877 19.4532L13.7867 19.4531C13.7845 19.4529 13.7822 19.4527 13.78 19.4525H13.7791L13.7764 19.4522L13.7756 19.4521L13.7722 19.4519L13.7717 19.4518L13.7688 19.4516L13.7679 19.4515L13.765 19.4513H13.7645L13.761 19.451L13.7604 19.4509C13.7595 19.4508 13.7586 19.4508 13.7577 19.4507L13.7567 19.4506C13.7556 19.4505 13.7545 19.4504 13.7534 19.4503H13.7531L13.75 19.45H13.7489L13.7464 19.4498L13.7456 19.4497L13.7423 19.4495L13.7413 19.4494L13.7388 19.4492L13.7378 19.4491L13.7348 19.4489L13.7344 19.4488L13.7311 19.4486L13.7301 19.4485L13.7276 19.4484L13.7266 19.4483L13.7232 19.448H13.7228L13.7198 19.4478L13.719 19.4477C13.718 19.4477 13.7169 19.4476 13.716 19.4475H13.7155L13.7122 19.4473L13.7111 19.4472L13.7087 19.447H13.7077C13.7065 19.4469 13.7056 19.4468 13.7044 19.4468L13.7039 19.4467L13.7009 19.4466L13.7 19.4465C13.6991 19.4464 13.6981 19.4464 13.6971 19.4463H13.6966L13.6931 19.4461L13.6924 19.446L13.6897 19.4459L13.6888 19.4458C13.6866 19.4457 13.6842 19.4455 13.682 19.4454H13.681L13.6783 19.4452H13.6776C13.6764 19.4451 13.6753 19.445 13.6741 19.4449H13.6737C13.6726 19.4449 13.6717 19.4448 13.6707 19.4447H13.6698L13.6667 19.4445H13.6664C13.6652 19.4445 13.6641 19.4444 13.6629 19.4444L13.6622 19.4443L13.6593 19.4442H13.6586C13.6574 19.4441 13.6563 19.444 13.6551 19.444L13.6548 19.4439L13.6517 19.4438H13.6507L13.6478 19.4436H13.6473L13.6439 19.4434H13.6432L13.6403 19.4433L13.6395 19.4432L13.6361 19.443H13.6358C13.6348 19.443 13.6337 19.4429 13.6326 19.4429H13.6318L13.6289 19.4428L13.6283 19.4427C13.6271 19.4427 13.6259 19.4426 13.6249 19.4426H13.6241L13.6215 19.4425L13.6204 19.4424L13.6172 19.4423H13.617L13.6136 19.4422H13.6127L13.6099 19.4421L13.6092 19.442C13.6081 19.442 13.6069 19.4419 13.6059 19.4419H13.6051L13.6023 19.4418L13.6014 19.4417L13.5983 19.4416H13.598L13.5946 19.4415H13.5936L13.5911 19.4414H13.5901C13.589 19.4414 13.5878 19.4413 13.5867 19.4413H13.5864C13.5854 19.4413 13.5843 19.4412 13.5833 19.4412H13.5823L13.5796 19.4411H13.5788C13.5777 19.4411 13.5766 19.4411 13.5755 19.441H13.5745L13.5719 19.4409H13.571L13.5676 19.4408H13.5674L13.5641 19.4407H13.5631H13.5607L13.5596 19.4406H13.5563L13.5554 19.4405H13.5528H13.5518L13.5486 19.4404H13.5484H13.545H13.544L13.5413 19.4403H13.5404C13.5393 19.4403 13.5382 19.4403 13.5371 19.4403H13.5363H13.5336H13.5326L13.5298 19.4402H13.5291H13.5257H13.5248H13.5222H13.5213H13.5178H13.5175L13.5144 19.4401H13.5133H13.5106H13.5099C13.5088 19.4401 13.5076 19.4401 13.5065 19.4401H13.5057H13.503H13.4986L13.4985 19.4399Z" fill="#FCFCFD"/>
<path d="M13.6798 10.08C11.6916 10.08 10.0798 11.6918 10.0798 13.68C10.0798 15.6683 11.6916 17.28 13.6798 17.28C15.668 17.28 17.2798 15.6683 17.2798 13.68C17.2798 11.6918 15.668 10.08 13.6798 10.08Z" fill="#FF3378"/>
<path opacity="0.24" d="M14.0001 16.56C15.4139 16.56 16.5601 15.3018 16.5601 13.7498V13.7456V13.7421V13.7415V13.738V13.7374V13.7338V13.7336C16.5601 13.7325 16.56 13.7313 16.56 13.7301V13.7296C16.56 13.7285 16.56 13.7273 16.56 13.7262V13.7254C16.56 13.7243 16.56 13.7232 16.56 13.7221V13.7214L16.5599 13.7179V13.7174C16.5599 13.7163 16.5599 13.7152 16.5599 13.7141V13.7137C16.5599 13.7125 16.5599 13.7114 16.5599 13.7102V13.7095L16.5598 13.7061V13.7054V13.702V13.7014L16.5597 13.6983V13.6976L16.5596 13.6944V13.6935C16.5596 13.6924 16.5596 13.6914 16.5595 13.6903V13.6893C16.5595 13.6883 16.5595 13.6872 16.5595 13.6862V13.6852L16.5594 13.6825V13.6816C16.5593 13.6806 16.5593 13.6795 16.5593 13.6785V13.6776L16.5592 13.6744V13.6734L16.5591 13.6703V13.6693L16.559 13.6666V13.6654L16.5589 13.6628V13.6616L16.5588 13.6587V13.6574L16.5587 13.6546L16.5586 13.6533V13.6509L16.5585 13.6493V13.647L16.5584 13.6457L16.5583 13.6429V13.6416L16.5582 13.6388L16.5581 13.6373L16.558 13.6353V13.6332L16.5579 13.6314L16.5578 13.6292L16.5577 13.6272V13.6256L16.5576 13.6231L16.5575 13.6214L16.5574 13.6197L16.5573 13.6172V13.6157L16.5571 13.613V13.6116L16.557 13.6097L16.5569 13.6073L16.5568 13.6056L16.5567 13.6039L16.5566 13.6014L16.5565 13.6L16.5564 13.5972L16.5563 13.5958L16.5561 13.5919V13.5917L16.556 13.5896L16.5559 13.589L16.5558 13.5854L16.5557 13.5845L16.5555 13.5809V13.5803C16.5553 13.5767 16.5551 13.5731 16.5549 13.5695L16.5548 13.569L16.5546 13.5651V13.5648C16.554 13.5543 16.5533 13.544 16.5526 13.5336C16.5466 13.4474 16.5371 13.3623 16.5242 13.2784L16.5241 13.2781L16.5235 13.2744L16.5234 13.2737C16.5232 13.2725 16.5231 13.2715 16.5229 13.2703L16.5228 13.2695L16.5218 13.2634L16.5216 13.2622L16.5212 13.2595L16.521 13.2581L16.5206 13.2557L16.5203 13.254L16.5201 13.2525L16.5197 13.25L16.5195 13.2489C16.4881 13.058 16.3216 12.9312 16.1477 12.9657C15.9739 13.0002 15.8584 13.1827 15.8897 13.3736C15.9099 13.4977 15.9201 13.6236 15.92 13.7498C15.9188 14.9133 15.06 15.8562 14.0001 15.8575C13.8233 15.8575 13.6801 16.0148 13.6801 16.2088C13.6801 16.4028 13.8234 16.56 14.0001 16.56Z" fill="#FCFCFD"/>
<path opacity="0.12" d="M10.1606 13.7556V13.7628V13.7708V13.7783V13.7845L10.1607 13.7923V13.7998L10.1608 13.806L10.1609 13.8151L10.161 13.8212L10.1611 13.8284L10.1613 13.8347L10.1614 13.8425L10.1616 13.8499L10.1617 13.8578L10.162 13.8651L10.1622 13.8712L10.1624 13.8784L10.1627 13.8864L10.1629 13.8926L10.1631 13.8998L10.1634 13.9078L10.1636 13.9147L10.164 13.9243L10.1642 13.9283L10.1643 13.9302L10.1646 13.9363L10.165 13.9436L10.1654 13.9514L10.1657 13.9575L10.1661 13.9648L10.1667 13.9769L10.1669 13.98L10.1672 13.986L10.1678 13.9951L10.1682 14.0012L10.1686 14.0084L10.1691 14.0163L10.1695 14.0225L10.1704 14.0356L10.1707 14.0388L10.1711 14.0447L10.1715 14.0507L10.1722 14.0598L10.1727 14.0658L10.1733 14.0728L10.1747 14.091L10.175 14.094L10.1758 14.103L10.1763 14.1092L10.1769 14.1161L10.1777 14.1244C10.1787 14.1352 10.1794 14.1423 10.1801 14.1493L10.1804 14.1523L10.1811 14.159L10.1819 14.1674L10.1826 14.1735L10.1836 14.1829C10.1843 14.1891 10.1849 14.1952 10.1856 14.2013L10.1859 14.2043L10.1866 14.2103L10.1873 14.2164L10.1883 14.2254L10.1891 14.2315C10.1904 14.2418 10.1916 14.2519 10.1929 14.2619L10.1933 14.265L10.1937 14.268L10.1944 14.2739C10.1971 14.2943 10.1991 14.3083 10.2011 14.3223C10.2017 14.3264 10.2023 14.3304 10.2028 14.3344C10.324 15.154 10.7 15.9053 11.2694 16.4655C11.4097 16.6013 11.6258 16.5891 11.7521 16.4382C11.8768 16.2892 11.8676 16.0604 11.7314 15.9236C10.6179 14.8264 10.5424 12.9663 11.5629 11.7689C12.0809 11.1611 12.8124 10.8151 13.5791 10.8151C14.5925 10.814 15.5232 11.4163 15.9967 12.3798C16.0852 12.5591 16.2922 12.6273 16.4589 12.5322C16.6257 12.4371 16.6892 12.2145 16.6007 12.0352C16.1475 11.1167 15.3543 10.4469 14.417 10.1912C14.4074 10.1886 14.398 10.1861 14.3885 10.1836C14.3789 10.1811 14.3695 10.1787 14.3599 10.1763C14.3573 10.1756 14.3551 10.1751 14.3527 10.1745C14.349 10.1736 14.3455 10.1727 14.342 10.1719C14.3359 10.1703 14.33 10.1689 14.324 10.1675C14.3202 10.1666 14.3167 10.1658 14.3131 10.1649C14.3107 10.1643 14.3084 10.1638 14.306 10.1632C14.3023 10.1624 14.2989 10.1616 14.2953 10.1608L14.2879 10.1591C14.2842 10.1582 14.2807 10.1574 14.2771 10.1566C14.2734 10.1558 14.2699 10.155 14.2663 10.1542L14.2591 10.1527C14.2553 10.1518 14.2517 10.1511 14.2481 10.1503C14.2458 10.1498 14.2433 10.1493 14.241 10.1488L14.2373 10.148L14.2301 10.1465C14.2275 10.146 14.2251 10.1455 14.2228 10.145C14.2167 10.1438 14.2143 10.1433 14.212 10.1429C14.208 10.142 14.2044 10.1414 14.2009 10.1407L14.1937 10.1393C14.1897 10.1385 14.1862 10.1378 14.1827 10.1371L14.1754 10.1357L14.1718 10.1351L14.1646 10.1337C14.1619 10.1332 14.1595 10.1327 14.1572 10.1323C14.1509 10.1312 14.1486 10.1308 14.1462 10.1303H14.1458L14.1386 10.129L14.1279 10.1271L14.1241 10.1264L14.1169 10.1252C14.1142 10.1247 14.1118 10.1243 14.1095 10.124L14.0985 10.1221C14.0958 10.1217 14.0934 10.1213 14.0911 10.1209C14.0896 10.1206 14.0885 10.1205 14.0876 10.1203L14.0801 10.1191L14.0726 10.118C14.0663 10.117 14.064 10.1166 14.0617 10.1163L14.058 10.1157L14.0507 10.1146L14.0432 10.1135C14.0368 10.1126 14.0345 10.1122 14.0322 10.1119L14.0282 10.1114L14.0211 10.1104C14.0181 10.11 14.0158 10.1097 14.0135 10.1094L14.0059 10.1083L14.0018 10.1078L13.9943 10.1068L13.9874 10.1059L13.98 10.105L13.9728 10.1041C13.9699 10.1038 13.9676 10.1035 13.9653 10.1032L13.9577 10.1023L13.9466 10.101L13.943 10.1006L13.9355 10.0997L13.9279 10.0989C13.9226 10.0983 13.9214 10.0982 13.9202 10.0981L13.9168 10.0977L13.9131 10.0974L13.9057 10.0966C13.9027 10.0963 13.9004 10.0961 13.8982 10.0959C13.8928 10.0954 13.8916 10.0952 13.8905 10.0951L13.8862 10.0947L13.8793 10.0941L13.8716 10.0934C13.865 10.0928 13.8628 10.0926 13.8605 10.0924L13.857 10.0921L13.8494 10.0915L13.8416 10.0908C13.8401 10.0907 13.8392 10.0906 13.8382 10.0905C13.8362 10.0904 13.835 10.0903 13.8339 10.0902L13.827 10.0896L13.8194 10.089L13.8117 10.0885L13.8071 10.0882L13.7995 10.0876L13.7928 10.0872C13.7871 10.0868 13.7861 10.0867 13.7849 10.0867C13.7796 10.0863 13.7787 10.0863 13.7777 10.0862L13.7702 10.0858C13.7671 10.0856 13.7648 10.0854 13.7626 10.0853C13.757 10.085 13.7559 10.0849 13.7547 10.0848L13.7472 10.0844L13.7399 10.0841L13.7353 10.0838L13.7279 10.0835L13.7244 10.0833L13.7209 10.0832C13.7154 10.0829 13.7142 10.0828 13.7132 10.0828C13.7077 10.0826 13.7065 10.0825 13.7054 10.0825L13.6978 10.0822L13.6905 10.0819L13.6829 10.0817L13.6752 10.0814C13.6695 10.0813 13.6684 10.0812 13.6673 10.0812L13.6629 10.0811C13.6583 10.0809 13.6572 10.0809 13.656 10.0809L13.6481 10.0807L13.6413 10.0806L13.6334 10.0804L13.6255 10.0803C13.6199 10.0802 13.6187 10.0802 13.6176 10.0802L13.6103 10.0801H13.6054H13.5984L13.5912 10.08H13.5835C11.6911 10.0798 10.1606 11.7255 10.1606 13.7556Z" fill="#FCFCFD"/>
</svg>
