<svg width="48" height="48" viewBox="0 0 48 48" fill="none" xmlns="http://www.w3.org/2000/svg">
<path opacity="0.04" fill-rule="evenodd" clip-rule="evenodd" d="M24 48C37.2548 48 48 37.2548 48 24C48 10.7452 37.2548 0 24 0C10.7452 0 0 10.7452 0 24C0 37.2548 10.7452 48 24 48Z" fill="#1D2025"/>
<g opacity="0.5">
<path opacity="0.5" fill-rule="evenodd" clip-rule="evenodd" d="M25.0801 19.3573L22.4249 22.8244L24.45 25.4711C24.7471 25.8593 24.6661 26.4151 24.27 26.7062C23.874 26.9974 23.3069 26.9268 23.0099 26.5298C22.0648 25.2947 20.9308 23.8214 20.2197 22.8774C19.8597 22.4098 19.1396 22.4098 18.7796 22.8774L15.1793 27.5796C14.7383 28.1707 15.1613 29 15.8994 29H32.1006C32.8387 29 33.2617 28.1707 32.8207 27.5884L26.5202 19.3573C26.1602 18.8809 25.4401 18.8809 25.0801 19.3573Z" fill="#1D2025"/>
</g>
</svg>
